<svg width="590" height="182" viewBox="0 0 590 182" fill="none" xmlns="http://www.w3.org/2000/svg">
<rect width="183" height="171" rx="8" fill="#141447"/>
<path d="M31.568 30.448L30.864 34.032H32.736V35.136H30.656L30.096 38H28.896L29.456 35.136H27.12L26.56 38H25.376L25.936 35.136H24.624V34.032H26.144L26.848 30.448H24.96V29.344H27.072L27.6 26.608H28.8L28.256 29.344H30.592L31.136 26.608H32.32L31.792 29.344H33.072V30.448H31.568ZM30.384 30.448H28.048L27.344 34.032H29.68L30.384 30.448ZM42.5951 36.64V38H35.9391V36.64H38.4351V28.576L36.1151 30.016V28.496L39.1391 26.608H40.0991V36.64H42.5951Z" fill="white"/>
<path d="M36 73.6304C33.9 73.6304 32.06 73.1804 30.48 72.2804C28.92 71.3804 27.72 70.1104 26.88 68.4704C26.04 66.8104 25.62 64.8704 25.62 62.6504C25.62 60.4504 26.04 58.5304 26.88 56.8904C27.72 55.2304 28.92 53.9604 30.48 53.0803C32.06 52.1804 33.9 51.7304 36 51.7304C37.44 51.7304 38.79 51.9604 40.05 52.4204C41.33 52.8604 42.39 53.4804 43.23 54.2804L41.97 57.1003C41.01 56.3204 40.05 55.7604 39.09 55.4204C38.15 55.0603 37.14 54.8803 36.06 54.8803C34 54.8803 32.4 55.5504 31.26 56.8904C30.14 58.2304 29.58 60.1504 29.58 62.6504C29.58 65.1704 30.14 67.1104 31.26 68.4704C32.38 69.8104 33.98 70.4804 36.06 70.4804C37.14 70.4804 38.15 70.3104 39.09 69.9704C40.05 69.6104 41.01 69.0404 41.97 68.2604L43.23 71.0804C42.39 71.8804 41.33 72.5104 40.05 72.9704C38.79 73.4104 37.44 73.6304 36 73.6304ZM53.4541 73.6004C51.9141 73.6004 50.5541 73.2804 49.3741 72.6404C48.2141 72.0004 47.3141 71.0904 46.6741 69.9104C46.0541 68.7104 45.7441 67.3104 45.7441 65.7104C45.7441 64.1104 46.0541 62.7204 46.6741 61.5404C47.3141 60.3404 48.2141 59.4204 49.3741 58.7804C50.5541 58.1404 51.9141 57.8204 53.4541 57.8204C54.9741 57.8204 56.3141 58.1404 57.4741 58.7804C58.6341 59.4204 59.5241 60.3404 60.1441 61.5404C60.7841 62.7204 61.1041 64.1104 61.1041 65.7104C61.1041 67.3104 60.7841 68.7104 60.1441 69.9104C59.5241 71.0904 58.6341 72.0004 57.4741 72.6404C56.3141 73.2804 54.9741 73.6004 53.4541 73.6004ZM53.4241 70.6604C54.7041 70.6604 55.6741 70.2504 56.3341 69.4304C57.0141 68.5904 57.3541 67.3504 57.3541 65.7104C57.3541 64.0904 57.0141 62.8604 56.3341 62.0204C55.6541 61.1604 54.6941 60.7304 53.4541 60.7304C52.1941 60.7304 51.2241 61.1604 50.5441 62.0204C49.8641 62.8604 49.5241 64.0904 49.5241 65.7104C49.5241 67.3504 49.8541 68.5904 50.5141 69.4304C51.1941 70.2504 52.1641 70.6604 53.4241 70.6604ZM73.308 57.8204C76.928 57.8204 78.738 59.9004 78.738 64.0604V73.3604H74.988V64.2404C74.988 63.0404 74.758 62.1704 74.298 61.6304C73.838 61.0704 73.128 60.7904 72.168 60.7904C71.028 60.7904 70.108 61.1604 69.408 61.9004C68.708 62.6204 68.358 63.5804 68.358 64.7804V73.3604H64.638V62.5004C64.638 60.9004 64.558 59.4704 64.398 58.2104H67.908L68.178 60.7004C68.698 59.7804 69.398 59.0704 70.278 58.5704C71.178 58.0704 72.188 57.8204 73.308 57.8204ZM87.7842 61.0304V67.8104C87.7842 69.5904 88.6142 70.4804 90.2742 70.4804C90.7342 70.4804 91.2342 70.4004 91.7742 70.2404V73.2104C91.1142 73.4504 90.3142 73.5704 89.3742 73.5704C87.6542 73.5704 86.3342 73.0904 85.4142 72.1304C84.4942 71.1704 84.0342 69.7904 84.0342 67.9904V61.0304H81.1242V58.2104H84.0342V54.5204L87.7842 53.2604V58.2104H91.8042V61.0304H87.7842ZM107.941 65.9804H97.5014C97.5814 67.6004 97.9814 68.8004 98.7014 69.5804C99.4414 70.3404 100.531 70.7204 101.971 70.7204C103.631 70.7204 105.171 70.1804 106.591 69.1004L107.671 71.6804C106.951 72.2604 106.061 72.7304 105.001 73.0904C103.961 73.4304 102.901 73.6004 101.821 73.6004C99.3414 73.6004 97.3914 72.9004 95.9714 71.5004C94.5514 70.1004 93.8414 68.1804 93.8414 65.7404C93.8414 64.2004 94.1514 62.8304 94.7714 61.6304C95.3914 60.4304 96.2614 59.5004 97.3814 58.8404C98.5014 58.1604 99.7714 57.8204 101.191 57.8204C103.271 57.8204 104.911 58.5004 106.111 59.8604C107.331 61.2004 107.941 63.0504 107.941 65.4104V65.9804ZM101.281 60.5204C100.281 60.5204 99.4614 60.8204 98.8214 61.4204C98.2014 62.0004 97.8014 62.8504 97.6214 63.9704H104.671C104.551 62.8304 104.201 61.9704 103.621 61.3904C103.061 60.8104 102.281 60.5204 101.281 60.5204ZM120.087 57.8204C123.707 57.8204 125.517 59.9004 125.517 64.0604V73.3604H121.767V64.2404C121.767 63.0404 121.537 62.1704 121.077 61.6304C120.617 61.0704 119.907 60.7904 118.947 60.7904C117.807 60.7904 116.887 61.1604 116.187 61.9004C115.487 62.6204 115.137 63.5804 115.137 64.7804V73.3604H111.417V62.5004C111.417 60.9004 111.337 59.4704 111.177 58.2104H114.687L114.957 60.7004C115.477 59.7804 116.177 59.0704 117.057 58.5704C117.957 58.0704 118.967 57.8204 120.087 57.8204ZM134.563 61.0304V67.8104C134.563 69.5904 135.393 70.4804 137.053 70.4804C137.513 70.4804 138.013 70.4004 138.553 70.2404V73.2104C137.893 73.4504 137.093 73.5704 136.153 73.5704C134.433 73.5704 133.113 73.0904 132.193 72.1304C131.273 71.1704 130.813 69.7904 130.813 67.9904V61.0304H127.903V58.2104H130.813V54.5204L134.563 53.2604V58.2104H138.583V61.0304H134.563ZM26.31 87.0004H40.26V90.0904H30.15V95.9404H39.66V99.0604H30.15V108.36H26.31V87.0004ZM43.508 93.2104H47.228V108.36H43.508V93.2104ZM47.438 86.3404V90.0304H43.268V86.3404H47.438ZM59.7902 92.8504C60.3702 92.8504 60.8702 92.9304 61.2902 93.0904L61.2602 96.5104C60.6202 96.2504 59.9602 96.1204 59.2802 96.1204C58.0002 96.1204 57.0202 96.4904 56.3402 97.2304C55.6802 97.9704 55.3502 98.9504 55.3502 100.17V108.36H51.6302V97.5004C51.6302 95.9004 51.5502 94.4704 51.3902 93.2104H54.9002L55.2002 95.8804C55.5802 94.9004 56.1802 94.1504 57.0002 93.6304C57.8202 93.1104 58.7502 92.8504 59.7902 92.8504ZM69.0818 108.6C66.3418 108.6 64.1618 107.96 62.5418 106.68L63.5918 104.04C65.2118 105.24 67.0618 105.84 69.1418 105.84C70.0418 105.84 70.7318 105.69 71.2118 105.39C71.7118 105.09 71.9618 104.67 71.9618 104.13C71.9618 103.67 71.7918 103.31 71.4518 103.05C71.1118 102.77 70.5318 102.53 69.7118 102.33L67.1918 101.76C64.4318 101.16 63.0518 99.7504 63.0518 97.5304C63.0518 96.6104 63.3118 95.8004 63.8318 95.1004C64.3518 94.3804 65.0818 93.8204 66.0218 93.4204C66.9618 93.0204 68.0518 92.8204 69.2918 92.8204C70.3718 92.8204 71.4118 92.9904 72.4118 93.3304C73.4118 93.6504 74.2918 94.1204 75.0518 94.7404L73.9418 97.2904C72.4218 96.1704 70.8618 95.6104 69.2618 95.6104C68.4018 95.6104 67.7318 95.7704 67.2518 96.0904C66.7718 96.4104 66.5318 96.8504 66.5318 97.4104C66.5318 97.8504 66.6718 98.2004 66.9518 98.4604C67.2518 98.7204 67.7518 98.9404 68.4518 99.1204L71.0318 99.6904C72.5318 100.03 73.6218 100.56 74.3018 101.28C75.0018 101.98 75.3518 102.9 75.3518 104.04C75.3518 105.44 74.7918 106.55 73.6718 107.37C72.5518 108.19 71.0218 108.6 69.0818 108.6ZM83.4846 96.0304V102.81C83.4846 104.59 84.3146 105.48 85.9746 105.48C86.4346 105.48 86.9346 105.4 87.4746 105.24V108.21C86.8146 108.45 86.0146 108.57 85.0746 108.57C83.3546 108.57 82.0346 108.09 81.1146 107.13C80.1946 106.17 79.7346 104.79 79.7346 102.99V96.0304H76.8246V93.2104H79.7346V89.5204L83.4846 88.2604V93.2104H87.5046V96.0304H83.4846Z" fill="white"/>
<rect x="204" width="183" height="171" rx="8" fill="#141447"/>
<path d="M233.568 31.1619L232.864 34.7459H234.736V35.8499H232.656L232.096 38.7139H230.896L231.456 35.8499H229.12L228.56 38.7139H227.376L227.936 35.8499H226.624V34.7459H228.144L228.848 31.1619H226.96V30.0579H229.072L229.6 27.3219H230.8L230.256 30.0579H232.592L233.136 27.3219H234.32L233.792 30.0579H235.072V31.1619H233.568ZM232.384 31.1619H230.048L229.344 34.7459H231.68L232.384 31.1619ZM244.723 37.3539V38.7139H237.251V37.4819L241.171 33.1779C241.672 32.6232 242.035 32.1219 242.259 31.6739C242.494 31.2152 242.611 30.7619 242.611 30.3139C242.611 29.7379 242.446 29.3005 242.115 29.0019C241.784 28.6925 241.304 28.5379 240.675 28.5379C239.619 28.5379 238.563 28.9539 237.507 29.7859L236.915 28.5699C237.363 28.1539 237.934 27.8232 238.627 27.5779C239.32 27.3219 240.019 27.1939 240.723 27.1939C241.811 27.1939 242.67 27.4659 243.299 28.0099C243.939 28.5539 244.259 29.2899 244.259 30.2179C244.259 30.8792 244.115 31.5085 243.827 32.1059C243.539 32.6925 243.059 33.3485 242.387 34.0739L239.347 37.3539H244.723Z" fill="white"/>
<path d="M249.13 52.7962V74.1562H245.71V60.8962L240.04 74.1562H237.49L231.79 61.0462V74.1562H228.37V52.7962H231.43L238.78 69.5062L246.07 52.7962H249.13ZM260.698 74.3963C259.158 74.3963 257.798 74.0763 256.618 73.4362C255.458 72.7962 254.558 71.8862 253.918 70.7062C253.298 69.5062 252.988 68.1062 252.988 66.5062C252.988 64.9062 253.298 63.5162 253.918 62.3362C254.558 61.1362 255.458 60.2162 256.618 59.5762C257.798 58.9362 259.158 58.6162 260.698 58.6162C262.218 58.6162 263.558 58.9362 264.718 59.5762C265.878 60.2162 266.768 61.1362 267.388 62.3362C268.028 63.5162 268.348 64.9062 268.348 66.5062C268.348 68.1062 268.028 69.5062 267.388 70.7062C266.768 71.8862 265.878 72.7962 264.718 73.4362C263.558 74.0763 262.218 74.3963 260.698 74.3963ZM260.668 71.4562C261.948 71.4562 262.918 71.0462 263.578 70.2262C264.258 69.3862 264.598 68.1462 264.598 66.5062C264.598 64.8862 264.258 63.6562 263.578 62.8162C262.898 61.9562 261.938 61.5262 260.698 61.5262C259.438 61.5262 258.468 61.9562 257.788 62.8162C257.108 63.6562 256.768 64.8862 256.768 66.5062C256.768 68.1462 257.098 69.3862 257.758 70.2262C258.438 71.0462 259.408 71.4562 260.668 71.4562ZM280.522 58.6162C281.842 58.6162 283.002 58.9462 284.002 59.6062C285.022 60.2462 285.812 61.1562 286.372 62.3362C286.932 63.5162 287.212 64.8862 287.212 66.4463C287.212 68.0062 286.922 69.3962 286.342 70.6162C285.782 71.8162 284.992 72.7462 283.972 73.4062C282.972 74.0663 281.822 74.3963 280.522 74.3963C279.402 74.3963 278.402 74.1562 277.522 73.6762C276.662 73.1962 276.012 72.5262 275.572 71.6662V74.1562H271.882V52.0762H275.602V61.2862C276.062 60.4462 276.722 59.7962 277.582 59.3362C278.442 58.8562 279.422 58.6162 280.522 58.6162ZM279.532 71.4562C280.772 71.4562 281.732 71.0162 282.412 70.1362C283.092 69.2562 283.432 68.0262 283.432 66.4463C283.432 64.8862 283.092 63.6862 282.412 62.8462C281.732 61.9862 280.762 61.5562 279.502 61.5562C278.242 61.5562 277.272 61.9862 276.592 62.8462C275.912 63.7062 275.572 64.9262 275.572 66.5062C275.572 68.1062 275.912 69.3362 276.592 70.1963C277.272 71.0362 278.252 71.4562 279.532 71.4562ZM290.786 59.0063H294.506V74.1562H290.786V59.0063ZM294.716 52.1362V55.8262H290.546V52.1362H294.716ZM298.908 52.0762H302.628V74.1562H298.908V52.0762ZM320.29 66.7762H309.85C309.93 68.3962 310.33 69.5962 311.05 70.3762C311.79 71.1362 312.88 71.5162 314.32 71.5162C315.98 71.5162 317.52 70.9762 318.94 69.8962L320.02 72.4762C319.3 73.0562 318.41 73.5262 317.35 73.8862C316.31 74.2263 315.25 74.3963 314.17 74.3963C311.69 74.3963 309.74 73.6962 308.32 72.2962C306.9 70.8962 306.19 68.9762 306.19 66.5362C306.19 64.9962 306.5 63.6262 307.12 62.4262C307.74 61.2262 308.61 60.2962 309.73 59.6362C310.85 58.9562 312.12 58.6162 313.54 58.6162C315.62 58.6162 317.26 59.2962 318.46 60.6562C319.68 61.9962 320.29 63.8462 320.29 66.2062V66.7762ZM313.63 61.3162C312.63 61.3162 311.81 61.6162 311.17 62.2162C310.55 62.7962 310.15 63.6462 309.97 64.7662H317.02C316.9 63.6262 316.55 62.7662 315.97 62.1862C315.41 61.6062 314.63 61.3162 313.63 61.3162ZM228.31 87.7962H242.26V90.8862H232.15V96.7362H241.66V99.8562H232.15V109.156H228.31V87.7962ZM245.508 94.0063H249.228V109.156H245.508V94.0063ZM249.438 87.1362V90.8262H245.268V87.1362H249.438ZM261.79 93.6462C262.37 93.6462 262.87 93.7262 263.29 93.8862L263.26 97.3062C262.62 97.0462 261.96 96.9162 261.28 96.9162C260 96.9162 259.02 97.2862 258.34 98.0262C257.68 98.7662 257.35 99.7462 257.35 100.966V109.156H253.63V98.2962C253.63 96.6962 253.55 95.2662 253.39 94.0063H256.9L257.2 96.6762C257.58 95.6962 258.18 94.9462 259 94.4262C259.82 93.9062 260.75 93.6462 261.79 93.6462ZM271.082 109.396C268.342 109.396 266.162 108.756 264.542 107.476L265.592 104.836C267.212 106.036 269.062 106.636 271.142 106.636C272.042 106.636 272.732 106.486 273.212 106.186C273.712 105.886 273.962 105.466 273.962 104.926C273.962 104.466 273.792 104.106 273.452 103.846C273.112 103.566 272.532 103.326 271.712 103.126L269.192 102.556C266.432 101.956 265.052 100.546 265.052 98.3262C265.052 97.4062 265.312 96.5962 265.832 95.8962C266.352 95.1762 267.082 94.6162 268.022 94.2162C268.962 93.8162 270.052 93.6162 271.292 93.6162C272.372 93.6162 273.412 93.7862 274.412 94.1262C275.412 94.4462 276.292 94.9162 277.052 95.5362L275.942 98.0862C274.422 96.9662 272.862 96.4062 271.262 96.4062C270.402 96.4062 269.732 96.5662 269.252 96.8862C268.772 97.2062 268.532 97.6462 268.532 98.2062C268.532 98.6462 268.672 98.9962 268.952 99.2562C269.252 99.5162 269.752 99.7362 270.452 99.9162L273.032 100.486C274.532 100.826 275.622 101.356 276.302 102.076C277.002 102.776 277.352 103.696 277.352 104.836C277.352 106.236 276.792 107.346 275.672 108.166C274.552 108.986 273.022 109.396 271.082 109.396ZM285.485 96.8262V103.606C285.485 105.386 286.315 106.276 287.975 106.276C288.435 106.276 288.935 106.196 289.475 106.036V109.006C288.815 109.246 288.015 109.366 287.075 109.366C285.355 109.366 284.035 108.886 283.115 107.926C282.195 106.966 281.735 105.586 281.735 103.786V96.8262H278.825V94.0063H281.735V90.3162L285.485 89.0562V94.0063H289.505V96.8262H285.485Z" fill="white"/>
<rect x="407" width="183" height="171" rx="8" fill="#141447"/>
<path d="M436.568 31.0876L435.864 34.6716H437.736V35.7756H435.656L435.096 38.6396H433.896L434.456 35.7756H432.12L431.56 38.6396H430.376L430.936 35.7756H429.624V34.6716H431.144L431.848 31.0876H429.96V29.9836H432.072L432.6 27.2476H433.8L433.256 29.9836H435.592L436.136 27.2476H437.32L436.792 29.9836H438.072V31.0876H436.568ZM435.384 31.0876H433.048L432.344 34.6716H434.68L435.384 31.0876ZM445.483 32.7836C446.144 32.9756 446.651 33.3063 447.003 33.7756C447.355 34.245 447.531 34.837 447.531 35.5516C447.531 36.5436 447.179 37.3276 446.475 37.9036C445.782 38.469 444.838 38.7516 443.643 38.7516C442.886 38.7516 442.16 38.6343 441.467 38.3996C440.784 38.1543 440.214 37.813 439.755 37.3756L440.347 36.1596C441.371 36.9916 442.454 37.4076 443.595 37.4076C445.152 37.4076 445.931 36.7516 445.931 35.4396C445.931 34.7996 445.728 34.325 445.323 34.0156C444.918 33.6956 444.304 33.5356 443.483 33.5356H442.091V32.1916H443.227C444.016 32.1916 444.619 32.0263 445.035 31.6956C445.451 31.365 445.659 30.885 445.659 30.2556C445.659 29.6796 445.483 29.237 445.131 28.9276C444.79 28.6183 444.304 28.4636 443.675 28.4636C442.608 28.4636 441.552 28.8796 440.507 29.7116L439.915 28.4956C440.363 28.069 440.928 27.733 441.611 27.4876C442.304 27.2423 443.019 27.1196 443.755 27.1196C444.822 27.1196 445.67 27.3863 446.299 27.9196C446.939 28.4423 447.259 29.1516 447.259 30.0476C447.259 30.6983 447.104 31.2636 446.795 31.7436C446.486 32.2236 446.048 32.5703 445.483 32.7836Z" fill="white"/>
<path d="M440.13 74.27C437.19 74.27 434.96 73.52 433.44 72.02C431.94 70.5 431.19 68.28 431.19 65.36V52.64H435V65.57C435 67.41 435.43 68.81 436.29 69.77C437.15 70.71 438.43 71.18 440.13 71.18C441.79 71.18 443.05 70.7 443.91 69.74C444.79 68.78 445.23 67.39 445.23 65.57V52.64H449.04V65.36C449.04 68.26 448.28 70.47 446.76 71.99C445.24 73.51 443.03 74.27 440.13 74.27ZM459.097 74.24C456.357 74.24 454.177 73.6 452.557 72.32L453.607 69.68C455.227 70.88 457.077 71.48 459.157 71.48C460.057 71.48 460.747 71.33 461.227 71.03C461.727 70.73 461.977 70.31 461.977 69.77C461.977 69.31 461.807 68.95 461.467 68.69C461.127 68.41 460.547 68.17 459.727 67.97L457.207 67.4C454.447 66.8 453.067 65.39 453.067 63.17C453.067 62.25 453.327 61.44 453.847 60.74C454.367 60.02 455.097 59.46 456.037 59.06C456.977 58.66 458.067 58.46 459.307 58.46C460.387 58.46 461.427 58.63 462.427 58.97C463.427 59.29 464.307 59.76 465.067 60.38L463.957 62.93C462.437 61.81 460.877 61.25 459.277 61.25C458.417 61.25 457.747 61.41 457.267 61.73C456.787 62.05 456.547 62.49 456.547 63.05C456.547 63.49 456.687 63.84 456.967 64.1C457.267 64.36 457.767 64.58 458.467 64.76L461.047 65.33C462.547 65.67 463.637 66.2 464.317 66.92C465.017 67.62 465.367 68.54 465.367 69.68C465.367 71.08 464.807 72.19 463.687 73.01C462.567 73.83 461.037 74.24 459.097 74.24ZM482.136 66.62H471.696C471.776 68.24 472.176 69.44 472.896 70.22C473.636 70.98 474.726 71.36 476.166 71.36C477.826 71.36 479.366 70.82 480.786 69.74L481.866 72.32C481.146 72.9 480.256 73.37 479.196 73.73C478.156 74.07 477.096 74.24 476.016 74.24C473.536 74.24 471.586 73.54 470.166 72.14C468.746 70.74 468.036 68.82 468.036 66.38C468.036 64.84 468.346 63.47 468.966 62.27C469.586 61.07 470.456 60.14 471.576 59.48C472.696 58.8 473.966 58.46 475.386 58.46C477.466 58.46 479.106 59.14 480.306 60.5C481.526 61.84 482.136 63.69 482.136 66.05V66.62ZM475.476 61.16C474.476 61.16 473.656 61.46 473.016 62.06C472.396 62.64 471.996 63.49 471.816 64.61H478.866C478.746 63.47 478.396 62.61 477.816 62.03C477.256 61.45 476.476 61.16 475.476 61.16ZM493.772 58.49C494.352 58.49 494.852 58.57 495.272 58.73L495.242 62.15C494.602 61.89 493.942 61.76 493.262 61.76C491.982 61.76 491.002 62.13 490.322 62.87C489.662 63.61 489.332 64.59 489.332 65.81V74H485.612V63.14C485.612 61.54 485.532 60.11 485.372 58.85H488.882L489.182 61.52C489.562 60.54 490.162 59.79 490.982 59.27C491.802 58.75 492.732 58.49 493.772 58.49ZM497.163 64.4H506.193V67.4H497.163V64.4ZM437.91 109.24C436.33 109.24 434.96 108.92 433.8 108.28C432.64 107.64 431.75 106.74 431.13 105.58C430.51 104.4 430.2 103.02 430.2 101.44C430.2 99.86 430.52 98.47 431.16 97.27C431.82 96.07 432.74 95.14 433.92 94.48C435.12 93.8 436.5 93.46 438.06 93.46C439.14 93.46 440.18 93.63 441.18 93.97C442.2 94.31 443.01 94.78 443.61 95.38L442.56 98.02C441.92 97.5 441.24 97.11 440.52 96.85C439.8 96.57 439.09 96.43 438.39 96.43C437.03 96.43 435.97 96.86 435.21 97.72C434.45 98.56 434.07 99.78 434.07 101.38C434.07 102.98 434.44 104.2 435.18 105.04C435.94 105.88 437.01 106.3 438.39 106.3C439.09 106.3 439.8 106.16 440.52 105.88C441.24 105.6 441.92 105.2 442.56 104.68L443.61 107.32C442.97 107.92 442.14 108.39 441.12 108.73C440.1 109.07 439.03 109.24 437.91 109.24ZM459.688 101.62H449.248C449.328 103.24 449.728 104.44 450.448 105.22C451.188 105.98 452.278 106.36 453.718 106.36C455.378 106.36 456.918 105.82 458.338 104.74L459.418 107.32C458.698 107.9 457.808 108.37 456.748 108.73C455.708 109.07 454.648 109.24 453.568 109.24C451.088 109.24 449.138 108.54 447.718 107.14C446.298 105.74 445.588 103.82 445.588 101.38C445.588 99.84 445.898 98.47 446.518 97.27C447.138 96.07 448.008 95.14 449.128 94.48C450.248 93.8 451.518 93.46 452.938 93.46C455.018 93.46 456.658 94.14 457.858 95.5C459.078 96.84 459.688 98.69 459.688 101.05V101.62ZM453.028 96.16C452.028 96.16 451.208 96.46 450.568 97.06C449.948 97.64 449.548 98.49 449.368 99.61H456.418C456.298 98.47 455.948 97.61 455.368 97.03C454.808 96.45 454.028 96.16 453.028 96.16ZM471.833 93.46C475.453 93.46 477.263 95.54 477.263 99.7V109H473.513V99.88C473.513 98.68 473.283 97.81 472.823 97.27C472.363 96.71 471.653 96.43 470.693 96.43C469.553 96.43 468.633 96.8 467.933 97.54C467.233 98.26 466.883 99.22 466.883 100.42V109H463.163V98.14C463.163 96.54 463.083 95.11 462.923 93.85H466.433L466.703 96.34C467.223 95.42 467.923 94.71 468.803 94.21C469.703 93.71 470.713 93.46 471.833 93.46ZM486.31 96.67V103.45C486.31 105.23 487.14 106.12 488.8 106.12C489.26 106.12 489.76 106.04 490.3 105.88V108.85C489.64 109.09 488.84 109.21 487.9 109.21C486.18 109.21 484.86 108.73 483.94 107.77C483.02 106.81 482.56 105.43 482.56 103.63V96.67H479.65V93.85H482.56V90.16L486.31 88.9V93.85H490.33V96.67H486.31ZM506.467 101.62H496.027C496.107 103.24 496.507 104.44 497.227 105.22C497.967 105.98 499.057 106.36 500.497 106.36C502.157 106.36 503.697 105.82 505.117 104.74L506.197 107.32C505.477 107.9 504.587 108.37 503.527 108.73C502.487 109.07 501.427 109.24 500.347 109.24C497.867 109.24 495.917 108.54 494.497 107.14C493.077 105.74 492.367 103.82 492.367 101.38C492.367 99.84 492.677 98.47 493.297 97.27C493.917 96.07 494.787 95.14 495.907 94.48C497.027 93.8 498.297 93.46 499.717 93.46C501.797 93.46 503.437 94.14 504.637 95.5C505.857 96.84 506.467 98.69 506.467 101.05V101.62ZM499.807 96.16C498.807 96.16 497.987 96.46 497.347 97.06C496.727 97.64 496.327 98.49 496.147 99.61H503.197C503.077 98.47 502.727 97.61 502.147 97.03C501.587 96.45 500.807 96.16 499.807 96.16ZM518.102 93.49C518.682 93.49 519.182 93.57 519.602 93.73L519.572 97.15C518.932 96.89 518.272 96.76 517.592 96.76C516.312 96.76 515.332 97.13 514.652 97.87C513.992 98.61 513.662 99.59 513.662 100.81V109H509.942V98.14C509.942 96.54 509.862 95.11 509.702 93.85H513.212L513.512 96.52C513.892 95.54 514.492 94.79 515.312 94.27C516.132 93.75 517.062 93.49 518.102 93.49ZM534.957 101.62H524.517C524.597 103.24 524.997 104.44 525.717 105.22C526.457 105.98 527.547 106.36 528.987 106.36C530.647 106.36 532.187 105.82 533.607 104.74L534.687 107.32C533.967 107.9 533.077 108.37 532.017 108.73C530.977 109.07 529.917 109.24 528.837 109.24C526.357 109.24 524.407 108.54 522.987 107.14C521.567 105.74 520.857 103.82 520.857 101.38C520.857 99.84 521.167 98.47 521.787 97.27C522.407 96.07 523.277 95.14 524.397 94.48C525.517 93.8 526.787 93.46 528.207 93.46C530.287 93.46 531.927 94.14 533.127 95.5C534.347 96.84 534.957 98.69 534.957 101.05V101.62ZM528.297 96.16C527.297 96.16 526.477 96.46 525.837 97.06C525.217 97.64 524.817 98.49 524.637 99.61H531.687C531.567 98.47 531.217 97.61 530.637 97.03C530.077 96.45 529.297 96.16 528.297 96.16ZM552.923 86.92V109H549.233V106.57C548.773 107.41 548.113 108.07 547.253 108.55C546.393 109.01 545.413 109.24 544.313 109.24C543.013 109.24 541.853 108.91 540.833 108.25C539.813 107.59 539.013 106.66 538.433 105.46C537.873 104.24 537.593 102.85 537.593 101.29C537.593 99.73 537.873 98.36 538.433 97.18C538.993 96 539.783 95.09 540.803 94.45C541.823 93.79 542.993 93.46 544.313 93.46C545.393 93.46 546.353 93.69 547.193 94.15C548.053 94.59 548.713 95.22 549.173 96.04V86.92H552.923ZM545.303 106.3C546.543 106.3 547.503 105.87 548.183 105.01C548.883 104.15 549.233 102.93 549.233 101.35C549.233 99.77 548.893 98.55 548.213 97.69C547.533 96.83 546.573 96.4 545.333 96.4C544.073 96.4 543.093 96.83 542.393 97.69C541.713 98.53 541.373 99.73 541.373 101.29C541.373 102.87 541.713 104.1 542.393 104.98C543.093 105.86 544.063 106.3 545.303 106.3ZM445.53 121.92V144H441.84V141.57C441.38 142.41 440.72 143.07 439.86 143.55C439 144.01 438.02 144.24 436.92 144.24C435.62 144.24 434.46 143.91 433.44 143.25C432.42 142.59 431.62 141.66 431.04 140.46C430.48 139.24 430.2 137.85 430.2 136.29C430.2 134.73 430.48 133.36 431.04 132.18C431.6 131 432.39 130.09 433.41 129.45C434.43 128.79 435.6 128.46 436.92 128.46C438 128.46 438.96 128.69 439.8 129.15C440.66 129.59 441.32 130.22 441.78 131.04V121.92H445.53ZM437.91 141.3C439.15 141.3 440.11 140.87 440.79 140.01C441.49 139.15 441.84 137.93 441.84 136.35C441.84 134.77 441.5 133.55 440.82 132.69C440.14 131.83 439.18 131.4 437.94 131.4C436.68 131.4 435.7 131.83 435 132.69C434.32 133.53 433.98 134.73 433.98 136.29C433.98 137.87 434.32 139.1 435 139.98C435.7 140.86 436.67 141.3 437.91 141.3ZM463.174 136.62H452.734C452.814 138.24 453.214 139.44 453.934 140.22C454.674 140.98 455.764 141.36 457.204 141.36C458.864 141.36 460.404 140.82 461.824 139.74L462.904 142.32C462.184 142.9 461.294 143.37 460.234 143.73C459.194 144.07 458.134 144.24 457.054 144.24C454.574 144.24 452.624 143.54 451.204 142.14C449.784 140.74 449.074 138.82 449.074 136.38C449.074 134.84 449.384 133.47 450.004 132.27C450.624 131.07 451.494 130.14 452.614 129.48C453.734 128.8 455.004 128.46 456.424 128.46C458.504 128.46 460.144 129.14 461.344 130.5C462.564 131.84 463.174 133.69 463.174 136.05V136.62ZM456.514 131.16C455.514 131.16 454.694 131.46 454.054 132.06C453.434 132.64 453.034 133.49 452.854 134.61H459.904C459.784 133.47 459.434 132.61 458.854 132.03C458.294 131.45 457.514 131.16 456.514 131.16ZM472.2 144.24C469.46 144.24 467.28 143.6 465.66 142.32L466.71 139.68C468.33 140.88 470.18 141.48 472.26 141.48C473.16 141.48 473.85 141.33 474.33 141.03C474.83 140.73 475.08 140.31 475.08 139.77C475.08 139.31 474.91 138.95 474.57 138.69C474.23 138.41 473.65 138.17 472.83 137.97L470.31 137.4C467.55 136.8 466.17 135.39 466.17 133.17C466.17 132.25 466.43 131.44 466.95 130.74C467.47 130.02 468.2 129.46 469.14 129.06C470.08 128.66 471.17 128.46 472.41 128.46C473.49 128.46 474.53 128.63 475.53 128.97C476.53 129.29 477.41 129.76 478.17 130.38L477.06 132.93C475.54 131.81 473.98 131.25 472.38 131.25C471.52 131.25 470.85 131.41 470.37 131.73C469.89 132.05 469.65 132.49 469.65 133.05C469.65 133.49 469.79 133.84 470.07 134.1C470.37 134.36 470.87 134.58 471.57 134.76L474.15 135.33C475.65 135.67 476.74 136.2 477.42 136.92C478.12 137.62 478.47 138.54 478.47 139.68C478.47 141.08 477.91 142.19 476.79 143.01C475.67 143.83 474.14 144.24 472.2 144.24ZM481.979 128.85H485.699V144H481.979V128.85ZM485.909 121.98V125.67H481.739V121.98H485.909ZM504.741 128.85V143.52C504.741 145.88 504.091 147.67 502.791 148.89C501.491 150.11 499.581 150.72 497.061 150.72C494.721 150.72 492.661 150.23 490.881 149.25L491.481 146.4C493.321 147.36 495.151 147.84 496.971 147.84C499.671 147.84 501.021 146.5 501.021 143.82V140.82C500.561 141.64 499.891 142.31 499.011 142.83C498.131 143.33 497.141 143.58 496.041 143.58C494.721 143.58 493.541 143.27 492.501 142.65C491.481 142.01 490.681 141.12 490.101 139.98C489.541 138.82 489.261 137.5 489.261 136.02C489.261 134.54 489.541 133.23 490.101 132.09C490.681 130.93 491.481 130.04 492.501 129.42C493.541 128.78 494.721 128.46 496.041 128.46C497.161 128.46 498.151 128.7 499.011 129.18C499.891 129.64 500.561 130.29 501.021 131.13V128.85H504.741ZM497.031 140.64C498.271 140.64 499.241 140.23 499.941 139.41C500.661 138.59 501.021 137.46 501.021 136.02C501.021 134.58 500.671 133.45 499.971 132.63C499.271 131.81 498.291 131.4 497.031 131.4C495.791 131.4 494.811 131.81 494.091 132.63C493.391 133.45 493.041 134.58 493.041 136.02C493.041 137.46 493.391 138.59 494.091 139.41C494.811 140.23 495.791 140.64 497.031 140.64ZM517.763 128.46C521.383 128.46 523.193 130.54 523.193 134.7V144H519.443V134.88C519.443 133.68 519.213 132.81 518.753 132.27C518.293 131.71 517.583 131.43 516.623 131.43C515.483 131.43 514.563 131.8 513.863 132.54C513.163 133.26 512.813 134.22 512.813 135.42V144H509.093V133.14C509.093 131.54 509.013 130.11 508.853 128.85H512.363L512.633 131.34C513.153 130.42 513.853 129.71 514.733 129.21C515.633 128.71 516.643 128.46 517.763 128.46Z" fill="white"/>
</svg>
