<svg id="Capa_1" data-name="Capa 1" xmlns="http://www.w3.org/2000/svg" xmlns:xlink="http://www.w3.org/1999/xlink" viewBox="0 0 28 28"><defs><style>.cls-1{fill:none;}.cls-2{clip-path:url(#clip-path);}.cls-3{fill:#d9d9ff;}</style><clipPath id="clip-path"><rect class="cls-1" width="28" height="28"/></clipPath></defs><title>Mesa de trabajo 1</title><g class="cls-2"><path class="cls-3" d="M6.32,23a6.41,6.41,0,0,0,6.4-6.47A6.51,6.51,0,0,0,6.21,10H6.08a8.2,8.2,0,0,1,5.13-1.8,1.61,1.61,0,0,0,1.61-1.62A1.5,1.5,0,0,0,11.36,5,11.4,11.4,0,0,0,0,16.52H0A6.34,6.34,0,0,0,6.32,23Z"/><path class="cls-3" d="M21.48,23a6.41,6.41,0,0,0,6.4-6.47A6.5,6.5,0,0,0,21.38,10h-.12a8.2,8.2,0,0,1,5.13-1.8A1.61,1.61,0,0,0,28,6.63,1.5,1.5,0,0,0,26.52,5,11.4,11.4,0,0,0,15.15,16.52h0A6.35,6.35,0,0,0,21.48,23Z"/></g></svg>