<svg width="842" height="536" viewBox="0 0 842 536" fill="none" xmlns="http://www.w3.org/2000/svg">
<path d="M52.9769 484V489H34.4169V484H40.5769V467.48L34.8169 470.88V465.4L43.1769 460.52H46.8169V484H52.9769ZM64.7613 482.56V489H58.2413V482.56H64.7613ZM80.75 489.36C77.31 489.36 74.67 488.107 72.83 485.6C71.0167 483.093 70.11 479.467 70.11 474.72C70.11 470.027 71.0167 466.44 72.83 463.96C74.67 461.48 77.31 460.24 80.75 460.24C84.19 460.24 86.8167 461.48 88.63 463.96C90.47 466.44 91.39 470.027 91.39 474.72C91.39 479.467 90.47 483.093 88.63 485.6C86.8167 488.107 84.19 489.36 80.75 489.36ZM80.75 484.56C82.3233 484.56 83.47 483.787 84.19 482.24C84.91 480.693 85.27 478.187 85.27 474.72C85.27 471.333 84.91 468.88 84.19 467.36C83.47 465.813 82.3233 465.04 80.75 465.04C79.1767 465.04 78.03 465.813 77.31 467.36C76.59 468.88 76.23 471.333 76.23 474.72C76.23 478.187 76.59 480.693 77.31 482.24C78.03 483.787 79.1767 484.56 80.75 484.56ZM116.974 460.52V465.16L104.294 489H97.6144L110.254 465.52H96.5344V460.52H116.974ZM131.759 460.16C135.465 460.16 138.319 461.387 140.319 463.84C142.319 466.293 143.319 469.787 143.319 474.32C143.319 477.44 142.839 480.133 141.879 482.4C140.919 484.64 139.545 486.36 137.759 487.56C135.972 488.76 133.839 489.36 131.359 489.36C129.599 489.36 127.892 489.08 126.239 488.52C124.585 487.96 123.172 487.173 121.999 486.16L124.039 481.68C126.465 483.52 128.812 484.44 131.079 484.44C132.945 484.44 134.385 483.693 135.399 482.2C136.439 480.68 137.012 478.467 137.119 475.56C136.505 476.627 135.625 477.48 134.479 478.12C133.332 478.733 132.052 479.04 130.639 479.04C128.985 479.04 127.492 478.653 126.159 477.88C124.852 477.08 123.825 475.987 123.079 474.6C122.359 473.187 121.999 471.587 121.999 469.8C121.999 467.96 122.412 466.307 123.239 464.84C124.092 463.373 125.252 462.227 126.719 461.4C128.212 460.573 129.892 460.16 131.759 460.16ZM132.119 474.12C133.399 474.12 134.425 473.707 135.199 472.88C135.999 472.027 136.399 470.92 136.399 469.56C136.399 468.227 135.999 467.147 135.199 466.32C134.399 465.467 133.372 465.04 132.119 465.04C130.839 465.04 129.812 465.453 129.039 466.28C128.292 467.107 127.919 468.2 127.919 469.56C127.919 470.973 128.292 472.093 129.039 472.92C129.785 473.72 130.812 474.12 132.119 474.12Z" fill="#1D1D47"/>
<path d="M381.164 283.95C383.364 283.95 385.314 284.433 387.014 285.4C388.747 286.333 390.081 287.667 391.014 289.4C391.981 291.133 392.464 293.133 392.464 295.4C392.464 297.8 391.897 299.917 390.764 301.75C389.664 303.55 388.064 304.95 385.964 305.95C383.897 306.917 381.481 307.4 378.714 307.4C376.447 307.4 374.197 307.033 371.964 306.3C369.764 305.567 367.981 304.6 366.614 303.4L369.114 297.8C372.281 300.1 375.514 301.25 378.814 301.25C382.981 301.25 385.064 299.4 385.064 295.7C385.064 293.933 384.514 292.55 383.414 291.55C382.347 290.517 380.881 290 379.014 290C377.847 290 376.664 290.217 375.464 290.65C374.297 291.083 373.247 291.683 372.314 292.45H367.864V271.4H390.714V277.4H375.464V285.35C377.031 284.417 378.931 283.95 381.164 283.95ZM421.994 300.75V307H397.544V301.25L409.394 288.65C411.861 285.983 413.094 283.55 413.094 281.35C413.094 279.95 412.678 278.9 411.844 278.2C411.044 277.467 409.861 277.1 408.294 277.1C405.261 277.1 402.111 278.25 398.844 280.55L396.344 274.95C397.778 273.717 399.611 272.75 401.844 272.05C404.078 271.317 406.344 270.95 408.644 270.95C412.344 270.95 415.278 271.85 417.444 273.65C419.644 275.417 420.744 277.8 420.744 280.8C420.744 282.867 420.311 284.783 419.444 286.55C418.611 288.283 417.194 290.217 415.194 292.35L407.144 300.75H421.994Z" fill="#333940"/>
<path d="M607.507 297.994H601.243L599.947 301H597.607L603.403 288.184H605.293L611.107 301H608.785L607.507 297.994ZM606.733 296.194L604.375 290.704L602.017 296.194H606.733ZM620.743 291.928L616.765 301H614.803L610.879 291.928H613.237L615.847 298.444L618.511 291.928H620.743ZM630.01 296.572H623.746C623.794 297.544 624.034 298.264 624.466 298.732C624.91 299.188 625.564 299.416 626.428 299.416C627.424 299.416 628.348 299.092 629.2 298.444L629.848 299.992C629.416 300.34 628.882 300.622 628.246 300.838C627.622 301.042 626.986 301.144 626.338 301.144C624.85 301.144 623.68 300.724 622.828 299.884C621.976 299.044 621.55 297.892 621.55 296.428C621.55 295.504 621.736 294.682 622.108 293.962C622.48 293.242 623.002 292.684 623.674 292.288C624.346 291.88 625.108 291.676 625.96 291.676C627.208 291.676 628.192 292.084 628.912 292.9C629.644 293.704 630.01 294.814 630.01 296.23V296.572ZM626.014 293.296C625.414 293.296 624.922 293.476 624.538 293.836C624.166 294.184 623.926 294.694 623.818 295.366H628.048C627.976 294.682 627.766 294.166 627.418 293.818C627.082 293.47 626.614 293.296 626.014 293.296ZM637.111 291.694C637.459 291.694 637.759 291.742 638.011 291.838L637.993 293.89C637.609 293.734 637.213 293.656 636.805 293.656C636.037 293.656 635.449 293.878 635.041 294.322C634.645 294.766 634.447 295.354 634.447 296.086V301H632.215V294.484C632.215 293.524 632.167 292.666 632.071 291.91H634.177L634.357 293.512C634.585 292.924 634.945 292.474 635.437 292.162C635.929 291.85 636.487 291.694 637.111 291.694ZM648.082 291.91V301H645.868V299.542C645.592 300.046 645.196 300.442 644.68 300.73C644.164 301.006 643.576 301.144 642.916 301.144C642.124 301.144 641.422 300.952 640.81 300.568C640.198 300.184 639.724 299.638 639.388 298.93C639.052 298.222 638.884 297.4 638.884 296.464C638.884 295.528 639.052 294.7 639.388 293.98C639.736 293.248 640.216 292.684 640.828 292.288C641.44 291.88 642.136 291.676 642.916 291.676C643.576 291.676 644.164 291.82 644.68 292.108C645.196 292.384 645.592 292.774 645.868 293.278V291.91H648.082ZM643.528 299.38C644.272 299.38 644.848 299.122 645.256 298.606C645.664 298.09 645.868 297.364 645.868 296.428C645.868 295.468 645.664 294.73 645.256 294.214C644.848 293.698 644.266 293.44 643.51 293.44C642.766 293.44 642.184 293.71 641.764 294.25C641.356 294.778 641.152 295.516 641.152 296.464C641.152 297.4 641.356 298.12 641.764 298.624C642.184 299.128 642.772 299.38 643.528 299.38ZM659.617 291.91V300.712C659.617 302.128 659.227 303.202 658.447 303.934C657.667 304.666 656.521 305.032 655.009 305.032C653.605 305.032 652.369 304.738 651.301 304.15L651.661 302.44C652.765 303.016 653.863 303.304 654.955 303.304C656.575 303.304 657.385 302.5 657.385 300.892V299.092C657.109 299.584 656.707 299.986 656.179 300.298C655.651 300.598 655.057 300.748 654.397 300.748C653.605 300.748 652.897 300.562 652.273 300.19C651.661 299.806 651.181 299.272 650.833 298.588C650.497 297.892 650.329 297.1 650.329 296.212C650.329 295.324 650.497 294.538 650.833 293.854C651.181 293.158 651.661 292.624 652.273 292.252C652.897 291.868 653.605 291.676 654.397 291.676C655.069 291.676 655.663 291.82 656.179 292.108C656.707 292.384 657.109 292.774 657.385 293.278V291.91H659.617ZM654.991 298.984C655.735 298.984 656.317 298.738 656.737 298.246C657.169 297.754 657.385 297.076 657.385 296.212C657.385 295.348 657.175 294.67 656.755 294.178C656.335 293.686 655.747 293.44 654.991 293.44C654.247 293.44 653.659 293.686 653.227 294.178C652.807 294.67 652.597 295.348 652.597 296.212C652.597 297.076 652.807 297.754 653.227 298.246C653.659 298.738 654.247 298.984 654.991 298.984ZM670.304 296.572H664.04C664.088 297.544 664.328 298.264 664.76 298.732C665.204 299.188 665.858 299.416 666.722 299.416C667.718 299.416 668.642 299.092 669.494 298.444L670.142 299.992C669.71 300.34 669.176 300.622 668.54 300.838C667.916 301.042 667.28 301.144 666.632 301.144C665.144 301.144 663.974 300.724 663.122 299.884C662.27 299.044 661.844 297.892 661.844 296.428C661.844 295.504 662.03 294.682 662.402 293.962C662.774 293.242 663.296 292.684 663.968 292.288C664.64 291.88 665.402 291.676 666.254 291.676C667.502 291.676 668.486 292.084 669.206 292.9C669.938 293.704 670.304 294.814 670.304 296.23V296.572ZM666.308 293.296C665.708 293.296 665.216 293.476 664.832 293.836C664.46 294.184 664.22 294.694 664.112 295.366H668.342C668.27 294.682 668.06 294.166 667.712 293.818C667.376 293.47 666.908 293.296 666.308 293.296ZM677.911 288.184H686.479V290.02H680.179V293.566H686.101V295.402H680.179V299.164H686.479V301H677.911V288.184ZM697.592 301H694.91L692.462 297.922L690.014 301H687.35L691.166 296.32L687.584 291.91H690.248L692.462 294.736L694.676 291.91H697.358L693.776 296.32L697.592 301ZM704.117 291.676C704.897 291.676 705.587 291.88 706.187 292.288C706.799 292.684 707.273 293.248 707.609 293.98C707.957 294.7 708.131 295.528 708.131 296.464C708.131 297.4 707.963 298.222 707.627 298.93C707.291 299.638 706.817 300.184 706.205 300.568C705.605 300.952 704.909 301.144 704.117 301.144C703.457 301.144 702.869 301.006 702.353 300.73C701.837 300.442 701.441 300.046 701.165 299.542V304.888H698.933V294.484C698.933 293.524 698.885 292.666 698.789 291.91H700.895L701.075 293.476C701.315 292.912 701.705 292.474 702.245 292.162C702.785 291.838 703.409 291.676 704.117 291.676ZM703.505 299.38C704.261 299.38 704.843 299.128 705.251 298.624C705.659 298.12 705.863 297.4 705.863 296.464C705.863 295.516 705.659 294.778 705.251 294.25C704.843 293.71 704.267 293.44 703.523 293.44C702.755 293.44 702.167 293.698 701.759 294.214C701.351 294.73 701.147 295.468 701.147 296.428C701.147 297.376 701.351 298.108 701.759 298.624C702.167 299.128 702.749 299.38 703.505 299.38ZM718.351 296.572H712.087C712.135 297.544 712.375 298.264 712.807 298.732C713.251 299.188 713.905 299.416 714.769 299.416C715.765 299.416 716.689 299.092 717.541 298.444L718.189 299.992C717.757 300.34 717.223 300.622 716.587 300.838C715.963 301.042 715.327 301.144 714.679 301.144C713.191 301.144 712.021 300.724 711.169 299.884C710.317 299.044 709.891 297.892 709.891 296.428C709.891 295.504 710.077 294.682 710.449 293.962C710.821 293.242 711.343 292.684 712.015 292.288C712.687 291.88 713.449 291.676 714.301 291.676C715.549 291.676 716.533 292.084 717.253 292.9C717.985 293.704 718.351 294.814 718.351 296.23V296.572ZM714.355 293.296C713.755 293.296 713.263 293.476 712.879 293.836C712.507 294.184 712.267 294.694 712.159 295.366H716.389C716.317 294.682 716.107 294.166 715.759 293.818C715.423 293.47 714.955 293.296 714.355 293.296ZM725.758 291.676C727.93 291.676 729.016 292.924 729.016 295.42V301H726.766V295.528C726.766 294.808 726.628 294.286 726.352 293.962C726.076 293.626 725.65 293.458 725.074 293.458C724.39 293.458 723.838 293.68 723.418 294.124C722.998 294.556 722.788 295.132 722.788 295.852V301H720.556V294.484C720.556 293.524 720.508 292.666 720.412 291.91H722.518L722.68 293.404C722.992 292.852 723.412 292.426 723.94 292.126C724.48 291.826 725.086 291.676 725.758 291.676ZM740.396 287.752V301H738.182V299.542C737.906 300.046 737.51 300.442 736.994 300.73C736.478 301.006 735.89 301.144 735.23 301.144C734.45 301.144 733.754 300.946 733.142 300.55C732.53 300.154 732.05 299.596 731.702 298.876C731.366 298.144 731.198 297.31 731.198 296.374C731.198 295.438 731.366 294.616 731.702 293.908C732.038 293.2 732.512 292.654 733.124 292.27C733.736 291.874 734.438 291.676 735.23 291.676C735.878 291.676 736.454 291.814 736.958 292.09C737.474 292.354 737.87 292.732 738.146 293.224V287.752H740.396ZM735.824 299.38C736.568 299.38 737.144 299.122 737.552 298.606C737.972 298.09 738.182 297.358 738.182 296.41C738.182 295.462 737.978 294.73 737.57 294.214C737.162 293.698 736.586 293.44 735.842 293.44C735.086 293.44 734.498 293.698 734.078 294.214C733.67 294.718 733.466 295.438 733.466 296.374C733.466 297.322 733.67 298.06 734.078 298.588C734.498 299.116 735.08 299.38 735.824 299.38ZM743.146 291.91H745.378V301H743.146V291.91ZM745.504 287.788V290.002H743.002V287.788H745.504ZM751.002 293.602V297.67C751.002 298.738 751.5 299.272 752.496 299.272C752.772 299.272 753.072 299.224 753.396 299.128V300.91C753 301.054 752.52 301.126 751.956 301.126C750.924 301.126 750.132 300.838 749.58 300.262C749.028 299.686 748.752 298.858 748.752 297.778V293.602H747.006V291.91H748.752V289.696L751.002 288.94V291.91H753.414V293.602H751.002ZM763.54 291.91V301H761.344V299.596C761.056 300.1 760.672 300.484 760.192 300.748C759.712 301.012 759.16 301.144 758.536 301.144C756.316 301.144 755.206 299.896 755.206 297.4V291.91H757.438V297.418C757.438 298.078 757.57 298.564 757.834 298.876C758.11 299.188 758.53 299.344 759.094 299.344C759.754 299.344 760.282 299.128 760.678 298.696C761.074 298.264 761.272 297.688 761.272 296.968V291.91H763.54ZM771.179 291.694C771.527 291.694 771.827 291.742 772.079 291.838L772.061 293.89C771.677 293.734 771.281 293.656 770.873 293.656C770.105 293.656 769.517 293.878 769.109 294.322C768.713 294.766 768.515 295.354 768.515 296.086V301H766.283V294.484C766.283 293.524 766.235 292.666 766.139 291.91H768.245L768.425 293.512C768.653 292.924 769.013 292.474 769.505 292.162C769.997 291.85 770.555 291.694 771.179 291.694ZM781.412 296.572H775.148C775.196 297.544 775.436 298.264 775.868 298.732C776.312 299.188 776.966 299.416 777.83 299.416C778.826 299.416 779.75 299.092 780.602 298.444L781.25 299.992C780.818 300.34 780.284 300.622 779.648 300.838C779.024 301.042 778.388 301.144 777.74 301.144C776.252 301.144 775.082 300.724 774.23 299.884C773.378 299.044 772.952 297.892 772.952 296.428C772.952 295.504 773.138 294.682 773.51 293.962C773.882 293.242 774.404 292.684 775.076 292.288C775.748 291.88 776.51 291.676 777.362 291.676C778.61 291.676 779.594 292.084 780.314 292.9C781.046 293.704 781.412 294.814 781.412 296.23V296.572ZM777.416 293.296C776.816 293.296 776.324 293.476 775.94 293.836C775.568 294.184 775.328 294.694 775.22 295.366H779.45C779.378 294.682 779.168 294.166 778.82 293.818C778.484 293.47 778.016 293.296 777.416 293.296ZM639.65 313.676C640.442 313.676 641.138 313.874 641.738 314.27C642.35 314.654 642.824 315.2 643.16 315.908C643.496 316.616 643.664 317.438 643.664 318.374C643.664 319.31 643.49 320.144 643.142 320.876C642.806 321.596 642.332 322.154 641.72 322.55C641.12 322.946 640.43 323.144 639.65 323.144C638.978 323.144 638.378 323 637.85 322.712C637.334 322.424 636.944 322.022 636.68 321.506V323H634.466V309.752H636.698V315.278C636.974 314.774 637.37 314.384 637.886 314.108C638.402 313.82 638.99 313.676 639.65 313.676ZM639.056 321.38C639.8 321.38 640.376 321.116 640.784 320.588C641.192 320.06 641.396 319.322 641.396 318.374C641.396 317.438 641.192 316.718 640.784 316.214C640.376 315.698 639.794 315.44 639.038 315.44C638.282 315.44 637.7 315.698 637.292 316.214C636.884 316.73 636.68 317.462 636.68 318.41C636.68 319.37 636.884 320.108 637.292 320.624C637.7 321.128 638.288 321.38 639.056 321.38ZM654.374 313.91L650.144 323.612C649.664 324.74 649.052 325.562 648.308 326.078C647.564 326.594 646.646 326.936 645.554 327.104L645.05 325.376C645.902 325.184 646.538 324.938 646.958 324.638C647.39 324.35 647.738 323.918 648.002 323.342L648.29 322.676L644.51 313.91H646.868L649.478 320.444L652.142 313.91H654.374ZM665.583 323.162C664.599 323.162 663.675 323.03 662.811 322.766C661.959 322.502 661.233 322.124 660.633 321.632L661.425 319.94C662.049 320.408 662.697 320.756 663.369 320.984C664.053 321.2 664.797 321.308 665.601 321.308C666.489 321.308 667.173 321.152 667.653 320.84C668.145 320.528 668.391 320.09 668.391 319.526C668.391 319.046 668.163 318.68 667.707 318.428C667.263 318.164 666.525 317.918 665.493 317.69C663.885 317.342 662.715 316.892 661.983 316.34C661.251 315.788 660.885 314.984 660.885 313.928C660.885 313.172 661.089 312.5 661.497 311.912C661.905 311.324 662.481 310.862 663.225 310.526C663.981 310.19 664.851 310.022 665.835 310.022C666.735 310.022 667.587 310.16 668.391 310.436C669.207 310.7 669.873 311.072 670.389 311.552L669.615 313.244C668.475 312.332 667.215 311.876 665.835 311.876C665.007 311.876 664.353 312.05 663.873 312.398C663.393 312.734 663.153 313.196 663.153 313.784C663.153 314.288 663.363 314.672 663.783 314.936C664.215 315.2 664.947 315.446 665.979 315.674C667.047 315.926 667.917 316.202 668.589 316.502C669.261 316.79 669.777 317.168 670.137 317.636C670.497 318.092 670.677 318.668 670.677 319.364C670.677 320.132 670.473 320.804 670.065 321.38C669.657 321.944 669.069 322.382 668.301 322.694C667.533 323.006 666.627 323.162 665.583 323.162ZM678.151 313.676C678.931 313.676 679.621 313.88 680.221 314.288C680.833 314.684 681.307 315.248 681.643 315.98C681.991 316.7 682.165 317.528 682.165 318.464C682.165 319.4 681.997 320.222 681.661 320.93C681.325 321.638 680.851 322.184 680.239 322.568C679.639 322.952 678.943 323.144 678.151 323.144C677.491 323.144 676.903 323.006 676.387 322.73C675.871 322.442 675.475 322.046 675.199 321.542V326.888H672.967V316.484C672.967 315.524 672.919 314.666 672.823 313.91H674.929L675.109 315.476C675.349 314.912 675.739 314.474 676.279 314.162C676.819 313.838 677.443 313.676 678.151 313.676ZM677.539 321.38C678.295 321.38 678.877 321.128 679.285 320.624C679.693 320.12 679.897 319.4 679.897 318.464C679.897 317.516 679.693 316.778 679.285 316.25C678.877 315.71 678.301 315.44 677.557 315.44C676.789 315.44 676.201 315.698 675.793 316.214C675.385 316.73 675.181 317.468 675.181 318.428C675.181 319.376 675.385 320.108 675.793 320.624C676.201 321.128 676.783 321.38 677.539 321.38ZM692.385 318.572H686.121C686.169 319.544 686.409 320.264 686.841 320.732C687.285 321.188 687.939 321.416 688.803 321.416C689.799 321.416 690.723 321.092 691.575 320.444L692.223 321.992C691.791 322.34 691.257 322.622 690.621 322.838C689.997 323.042 689.361 323.144 688.713 323.144C687.225 323.144 686.055 322.724 685.203 321.884C684.351 321.044 683.925 319.892 683.925 318.428C683.925 317.504 684.111 316.682 684.483 315.962C684.855 315.242 685.377 314.684 686.049 314.288C686.721 313.88 687.483 313.676 688.335 313.676C689.583 313.676 690.567 314.084 691.287 314.9C692.019 315.704 692.385 316.814 692.385 318.23V318.572ZM688.389 315.296C687.789 315.296 687.297 315.476 686.913 315.836C686.541 316.184 686.301 316.694 686.193 317.366H690.423C690.351 316.682 690.141 316.166 689.793 315.818C689.457 315.47 688.989 315.296 688.389 315.296ZM698.712 323.144C697.764 323.144 696.942 322.952 696.246 322.568C695.55 322.184 695.016 321.644 694.644 320.948C694.272 320.24 694.086 319.412 694.086 318.464C694.086 317.516 694.278 316.682 694.662 315.962C695.058 315.242 695.61 314.684 696.318 314.288C697.038 313.88 697.866 313.676 698.802 313.676C699.45 313.676 700.074 313.778 700.674 313.982C701.286 314.186 701.772 314.468 702.132 314.828L701.502 316.412C701.118 316.1 700.71 315.866 700.278 315.71C699.846 315.542 699.42 315.458 699 315.458C698.184 315.458 697.548 315.716 697.092 316.232C696.636 316.736 696.408 317.468 696.408 318.428C696.408 319.388 696.63 320.12 697.074 320.624C697.53 321.128 698.172 321.38 699 321.38C699.42 321.38 699.846 321.296 700.278 321.128C700.71 320.96 701.118 320.72 701.502 320.408L702.132 321.992C701.748 322.352 701.25 322.634 700.638 322.838C700.026 323.042 699.384 323.144 698.712 323.144ZM706.858 315.602V319.67C706.858 320.738 707.356 321.272 708.352 321.272C708.628 321.272 708.928 321.224 709.252 321.128V322.91C708.856 323.054 708.376 323.126 707.812 323.126C706.78 323.126 705.988 322.838 705.436 322.262C704.884 321.686 704.608 320.858 704.608 319.778V315.602H702.862V313.91H704.608V311.696L706.858 310.94V313.91H709.27V315.602H706.858ZM719.81 313.91V323H717.596V321.542C717.32 322.046 716.924 322.442 716.408 322.73C715.892 323.006 715.304 323.144 714.644 323.144C713.852 323.144 713.15 322.952 712.538 322.568C711.926 322.184 711.452 321.638 711.116 320.93C710.78 320.222 710.612 319.4 710.612 318.464C710.612 317.528 710.78 316.7 711.116 315.98C711.464 315.248 711.944 314.684 712.556 314.288C713.168 313.88 713.864 313.676 714.644 313.676C715.304 313.676 715.892 313.82 716.408 314.108C716.924 314.384 717.32 314.774 717.596 315.278V313.91H719.81ZM715.256 321.38C716 321.38 716.576 321.122 716.984 320.606C717.392 320.09 717.596 319.364 717.596 318.428C717.596 317.468 717.392 316.73 716.984 316.214C716.576 315.698 715.994 315.44 715.238 315.44C714.494 315.44 713.912 315.71 713.492 316.25C713.084 316.778 712.88 317.516 712.88 318.464C712.88 319.4 713.084 320.12 713.492 320.624C713.912 321.128 714.5 321.38 715.256 321.38ZM725.423 315.602V319.67C725.423 320.738 725.921 321.272 726.917 321.272C727.193 321.272 727.493 321.224 727.817 321.128V322.91C727.421 323.054 726.941 323.126 726.377 323.126C725.345 323.126 724.553 322.838 724.001 322.262C723.449 321.686 723.173 320.858 723.173 319.778V315.602H721.427V313.91H723.173V311.696L725.423 310.94V313.91H727.835V315.602H725.423ZM733.803 323.144C732.879 323.144 732.063 322.952 731.355 322.568C730.659 322.184 730.119 321.638 729.735 320.93C729.363 320.21 729.177 319.37 729.177 318.41C729.177 317.45 729.363 316.616 729.735 315.908C730.119 315.188 730.659 314.636 731.355 314.252C732.063 313.868 732.879 313.676 733.803 313.676C734.715 313.676 735.519 313.868 736.215 314.252C736.911 314.636 737.445 315.188 737.817 315.908C738.201 316.616 738.393 317.45 738.393 318.41C738.393 319.37 738.201 320.21 737.817 320.93C737.445 321.638 736.911 322.184 736.215 322.568C735.519 322.952 734.715 323.144 733.803 323.144ZM733.785 321.38C734.553 321.38 735.135 321.134 735.531 320.642C735.939 320.138 736.143 319.394 736.143 318.41C736.143 317.438 735.939 316.7 735.531 316.196C735.123 315.68 734.547 315.422 733.803 315.422C733.047 315.422 732.465 315.68 732.057 316.196C731.649 316.7 731.445 317.438 731.445 318.41C731.445 319.394 731.643 320.138 732.039 320.642C732.447 321.134 733.029 321.38 733.785 321.38ZM745.529 313.694C745.877 313.694 746.177 313.742 746.429 313.838L746.411 315.89C746.027 315.734 745.631 315.656 745.223 315.656C744.455 315.656 743.867 315.878 743.459 316.322C743.063 316.766 742.865 317.354 742.865 318.086V323H740.633V316.484C740.633 315.524 740.585 314.666 740.489 313.91H742.595L742.775 315.512C743.003 314.924 743.363 314.474 743.855 314.162C744.347 313.85 744.905 313.694 745.529 313.694Z" fill="#1D1D47"/>
<path d="M272.572 230.332C272.716 229.828 272.972 229.44 273.34 229.168C273.7 228.896 274.14 228.76 274.66 228.76C275.132 228.76 275.544 228.884 275.896 229.132C276.248 229.38 276.52 229.736 276.712 230.2C276.904 230.656 277 231.196 277 231.82L277 236.08L268.456 236.08L268.456 231.928C268.456 231.032 268.656 230.32 269.056 229.792C269.456 229.264 269.996 229 270.676 229C271.116 229 271.504 229.116 271.84 229.348C272.176 229.58 272.42 229.908 272.572 230.332ZM271.804 233.884L271.804 232.312C271.804 231.896 271.74 231.592 271.612 231.4C271.484 231.208 271.28 231.112 271 231.112C270.712 231.112 270.5 231.212 270.364 231.412C270.228 231.604 270.16 231.904 270.16 232.312L270.16 233.884L271.804 233.884ZM275.296 232.084C275.296 231.652 275.228 231.344 275.092 231.16C274.956 230.968 274.728 230.872 274.408 230.872C274.08 230.872 273.848 230.964 273.712 231.148C273.576 231.332 273.508 231.644 273.508 232.084L273.508 233.884L275.296 233.884L275.296 232.084ZM275.236 221.571L275.236 225.363L277 226.119L277 228.375L268.456 224.379L268.456 222.603L277 218.595L277 220.815L275.236 221.571ZM273.544 222.303L270.844 223.467L273.544 224.631L273.544 222.303ZM277 210.381L277 212.769L274.156 213.873C273.836 214.001 273.676 214.301 273.676 214.773L273.676 215.589L277 215.589L277 217.809L268.456 217.809L268.456 213.837C268.456 212.805 268.68 212.029 269.128 211.509C269.568 210.989 270.2 210.729 271.024 210.729C271.6 210.729 272.1 210.885 272.524 211.197C272.94 211.501 273.236 211.933 273.412 212.493C273.46 212.253 273.572 212.037 273.748 211.845C273.924 211.653 274.16 211.501 274.456 211.389L277 210.381ZM271.996 214.197C271.996 213.717 271.924 213.369 271.78 213.153C271.628 212.937 271.396 212.829 271.084 212.829C270.756 212.829 270.52 212.937 270.376 213.153C270.232 213.361 270.16 213.709 270.16 214.197L270.16 215.613L271.996 215.613L271.996 214.197ZM277.108 204.849C277.108 205.737 276.928 206.513 276.568 207.177C276.2 207.833 275.684 208.341 275.02 208.701C274.356 209.053 273.588 209.229 272.716 209.229C271.852 209.229 271.092 209.053 270.436 208.701C269.772 208.341 269.26 207.833 268.9 207.177C268.532 206.513 268.348 205.737 268.348 204.849C268.348 204.289 268.432 203.749 268.6 203.229C268.768 202.701 268.996 202.277 269.284 201.957L270.88 202.641C270.376 203.337 270.124 204.057 270.124 204.801C270.124 205.489 270.344 206.017 270.784 206.385C271.216 206.753 271.86 206.937 272.716 206.937C273.58 206.937 274.232 206.753 274.672 206.385C275.112 206.017 275.332 205.489 275.332 204.801C275.332 204.057 275.08 203.337 274.576 202.641L276.172 201.957C276.46 202.277 276.688 202.701 276.856 203.229C277.024 203.749 277.108 204.289 277.108 204.849ZM268.456 200.486L268.456 194.39L270.184 194.39L270.184 198.29L271.792 198.29L271.792 194.642L273.52 194.642L273.52 198.29L275.272 198.29L275.272 194.39L277 194.39L277 200.486L268.456 200.486ZM268.456 192.944L268.456 190.688L275.176 190.688L275.176 187.076L277 187.076L277 192.944L268.456 192.944ZM277.108 182.13C277.108 183.002 276.932 183.762 276.58 184.41C276.22 185.058 275.708 185.558 275.044 185.91C274.38 186.254 273.604 186.426 272.716 186.426C271.828 186.426 271.056 186.25 270.4 185.898C269.744 185.546 269.24 185.05 268.888 184.41C268.528 183.762 268.348 183.002 268.348 182.13C268.348 181.258 268.528 180.502 268.888 179.862C269.24 179.214 269.744 178.718 270.4 178.374C271.056 178.03 271.828 177.858 272.716 177.858C273.604 177.858 274.38 178.03 275.044 178.374C275.708 178.718 276.22 179.214 276.58 179.862C276.932 180.502 277.108 181.258 277.108 182.13ZM275.392 182.13C275.392 181.49 275.164 180.99 274.708 180.63C274.252 180.262 273.588 180.078 272.716 180.078C271.852 180.078 271.196 180.262 270.748 180.63C270.292 180.99 270.064 181.49 270.064 182.13C270.064 182.77 270.288 183.27 270.736 183.63C271.184 183.99 271.844 184.17 272.716 184.17C273.596 184.17 274.264 183.99 274.72 183.63C275.168 183.27 275.392 182.77 275.392 182.13ZM268.456 168.598L277 168.598L277 170.266L272.152 174.142L277 174.142L277 176.242L268.456 176.242L268.456 174.598L273.28 170.722L268.456 170.722L268.456 168.598ZM275.236 160.995L275.236 164.787L277 165.543L277 167.799L268.456 163.803L268.456 162.027L277 158.019L277 160.239L275.236 160.995ZM273.544 161.727L270.844 162.891L273.544 164.055L273.544 161.727Z" fill="#8483D9"/>
<path d="M15.4834 297.994H9.2194L7.9234 301H5.5834L11.3794 288.184H13.2694L19.0834 301H16.7614L15.4834 297.994ZM14.7094 296.194L12.3514 290.704L9.9934 296.194H14.7094ZM28.7192 291.928L24.7412 301H22.7792L18.8552 291.928H21.2132L23.8232 298.444L26.4872 291.928H28.7192ZM37.9864 296.572H31.7224C31.7704 297.544 32.0104 298.264 32.4424 298.732C32.8864 299.188 33.5404 299.416 34.4044 299.416C35.4004 299.416 36.3244 299.092 37.1764 298.444L37.8244 299.992C37.3924 300.34 36.8584 300.622 36.2224 300.838C35.5984 301.042 34.9624 301.144 34.3144 301.144C32.8264 301.144 31.6564 300.724 30.8044 299.884C29.9524 299.044 29.5264 297.892 29.5264 296.428C29.5264 295.504 29.7124 294.682 30.0844 293.962C30.4564 293.242 30.9784 292.684 31.6504 292.288C32.3224 291.88 33.0844 291.676 33.9364 291.676C35.1844 291.676 36.1684 292.084 36.8884 292.9C37.6204 293.704 37.9864 294.814 37.9864 296.23V296.572ZM33.9904 293.296C33.3904 293.296 32.8984 293.476 32.5144 293.836C32.1424 294.184 31.9024 294.694 31.7944 295.366H36.0244C35.9524 294.682 35.7424 294.166 35.3944 293.818C35.0584 293.47 34.5904 293.296 33.9904 293.296ZM45.0878 291.694C45.4358 291.694 45.7358 291.742 45.9878 291.838L45.9698 293.89C45.5858 293.734 45.1898 293.656 44.7818 293.656C44.0138 293.656 43.4258 293.878 43.0178 294.322C42.6218 294.766 42.4238 295.354 42.4238 296.086V301H40.1918V294.484C40.1918 293.524 40.1438 292.666 40.0478 291.91H42.1538L42.3338 293.512C42.5618 292.924 42.9218 292.474 43.4138 292.162C43.9058 291.85 44.4638 291.694 45.0878 291.694ZM56.0588 291.91V301H53.8448V299.542C53.5688 300.046 53.1728 300.442 52.6568 300.73C52.1408 301.006 51.5528 301.144 50.8928 301.144C50.1008 301.144 49.3988 300.952 48.7868 300.568C48.1748 300.184 47.7008 299.638 47.3648 298.93C47.0288 298.222 46.8608 297.4 46.8608 296.464C46.8608 295.528 47.0288 294.7 47.3648 293.98C47.7128 293.248 48.1928 292.684 48.8048 292.288C49.4168 291.88 50.1128 291.676 50.8928 291.676C51.5528 291.676 52.1408 291.82 52.6568 292.108C53.1728 292.384 53.5688 292.774 53.8448 293.278V291.91H56.0588ZM51.5048 299.38C52.2488 299.38 52.8248 299.122 53.2328 298.606C53.6408 298.09 53.8448 297.364 53.8448 296.428C53.8448 295.468 53.6408 294.73 53.2328 294.214C52.8248 293.698 52.2428 293.44 51.4868 293.44C50.7428 293.44 50.1608 293.71 49.7408 294.25C49.3328 294.778 49.1288 295.516 49.1288 296.464C49.1288 297.4 49.3328 298.12 49.7408 298.624C50.1608 299.128 50.7488 299.38 51.5048 299.38ZM67.5934 291.91V300.712C67.5934 302.128 67.2034 303.202 66.4234 303.934C65.6434 304.666 64.4974 305.032 62.9854 305.032C61.5814 305.032 60.3454 304.738 59.2774 304.15L59.6374 302.44C60.7414 303.016 61.8394 303.304 62.9314 303.304C64.5514 303.304 65.3614 302.5 65.3614 300.892V299.092C65.0854 299.584 64.6834 299.986 64.1554 300.298C63.6274 300.598 63.0334 300.748 62.3734 300.748C61.5814 300.748 60.8734 300.562 60.2494 300.19C59.6374 299.806 59.1574 299.272 58.8094 298.588C58.4734 297.892 58.3054 297.1 58.3054 296.212C58.3054 295.324 58.4734 294.538 58.8094 293.854C59.1574 293.158 59.6374 292.624 60.2494 292.252C60.8734 291.868 61.5814 291.676 62.3734 291.676C63.0454 291.676 63.6394 291.82 64.1554 292.108C64.6834 292.384 65.0854 292.774 65.3614 293.278V291.91H67.5934ZM62.9674 298.984C63.7114 298.984 64.2934 298.738 64.7134 298.246C65.1454 297.754 65.3614 297.076 65.3614 296.212C65.3614 295.348 65.1514 294.67 64.7314 294.178C64.3114 293.686 63.7234 293.44 62.9674 293.44C62.2234 293.44 61.6354 293.686 61.2034 294.178C60.7834 294.67 60.5734 295.348 60.5734 296.212C60.5734 297.076 60.7834 297.754 61.2034 298.246C61.6354 298.738 62.2234 298.984 62.9674 298.984ZM78.2802 296.572H72.0162C72.0642 297.544 72.3042 298.264 72.7362 298.732C73.1802 299.188 73.8342 299.416 74.6982 299.416C75.6942 299.416 76.6182 299.092 77.4702 298.444L78.1182 299.992C77.6862 300.34 77.1522 300.622 76.5162 300.838C75.8922 301.042 75.2562 301.144 74.6082 301.144C73.1202 301.144 71.9502 300.724 71.0982 299.884C70.2462 299.044 69.8202 297.892 69.8202 296.428C69.8202 295.504 70.0062 294.682 70.3782 293.962C70.7502 293.242 71.2722 292.684 71.9442 292.288C72.6162 291.88 73.3782 291.676 74.2302 291.676C75.4782 291.676 76.4622 292.084 77.1822 292.9C77.9142 293.704 78.2802 294.814 78.2802 296.23V296.572ZM74.2842 293.296C73.6842 293.296 73.1922 293.476 72.8082 293.836C72.4362 294.184 72.1962 294.694 72.0882 295.366H76.3182C76.2462 294.682 76.0362 294.166 75.6882 293.818C75.3522 293.47 74.8842 293.296 74.2842 293.296ZM85.887 288.184H94.455V290.02H88.155V293.566H94.077V295.402H88.155V299.164H94.455V301H85.887V288.184ZM105.424 291.91V301H103.21V299.542C102.934 300.046 102.538 300.442 102.022 300.73C101.506 301.006 100.918 301.144 100.258 301.144C99.4661 301.144 98.7641 300.952 98.1521 300.568C97.5401 300.184 97.0661 299.638 96.7301 298.93C96.3941 298.222 96.2261 297.4 96.2261 296.464C96.2261 295.528 96.3941 294.7 96.7301 293.98C97.0781 293.248 97.5581 292.684 98.1701 292.288C98.7821 291.88 99.4781 291.676 100.258 291.676C100.918 291.676 101.506 291.82 102.022 292.108C102.538 292.384 102.934 292.774 103.21 293.278V291.91H105.424ZM100.87 299.38C101.614 299.38 102.19 299.122 102.598 298.606C103.006 298.09 103.21 297.364 103.21 296.428C103.21 295.468 103.006 294.73 102.598 294.214C102.19 293.698 101.608 293.44 100.852 293.44C100.108 293.44 99.5261 293.71 99.1061 294.25C98.6981 294.778 98.4941 295.516 98.4941 296.464C98.4941 297.4 98.6981 298.12 99.1061 298.624C99.5261 299.128 100.114 299.38 100.87 299.38ZM113.071 291.694C113.419 291.694 113.719 291.742 113.971 291.838L113.953 293.89C113.569 293.734 113.173 293.656 112.765 293.656C111.997 293.656 111.409 293.878 111.001 294.322C110.605 294.766 110.407 295.354 110.407 296.086V301H108.175V294.484C108.175 293.524 108.127 292.666 108.031 291.91H110.137L110.317 293.512C110.545 292.924 110.905 292.474 111.397 292.162C111.889 291.85 112.447 291.694 113.071 291.694ZM120.725 291.676C122.897 291.676 123.983 292.924 123.983 295.42V301H121.733V295.528C121.733 294.808 121.595 294.286 121.319 293.962C121.043 293.626 120.617 293.458 120.041 293.458C119.357 293.458 118.805 293.68 118.385 294.124C117.965 294.556 117.755 295.132 117.755 295.852V301H115.523V294.484C115.523 293.524 115.475 292.666 115.379 291.91H117.485L117.647 293.404C117.959 292.852 118.379 292.426 118.907 292.126C119.447 291.826 120.053 291.676 120.725 291.676ZM126.669 291.91H128.901V301H126.669V291.91ZM129.027 287.788V290.002H126.525V287.788H129.027ZM136.864 291.676C139.036 291.676 140.122 292.924 140.122 295.42V301H137.872V295.528C137.872 294.808 137.734 294.286 137.458 293.962C137.182 293.626 136.756 293.458 136.18 293.458C135.496 293.458 134.944 293.68 134.524 294.124C134.104 294.556 133.894 295.132 133.894 295.852V301H131.662V294.484C131.662 293.524 131.614 292.666 131.518 291.91H133.624L133.786 293.404C134.098 292.852 134.518 292.426 135.046 292.126C135.586 291.826 136.192 291.676 136.864 291.676ZM151.592 291.91V300.712C151.592 302.128 151.202 303.202 150.422 303.934C149.642 304.666 148.496 305.032 146.984 305.032C145.58 305.032 144.344 304.738 143.276 304.15L143.636 302.44C144.74 303.016 145.838 303.304 146.93 303.304C148.55 303.304 149.36 302.5 149.36 300.892V299.092C149.084 299.584 148.682 299.986 148.154 300.298C147.626 300.598 147.032 300.748 146.372 300.748C145.58 300.748 144.872 300.562 144.248 300.19C143.636 299.806 143.156 299.272 142.808 298.588C142.472 297.892 142.304 297.1 142.304 296.212C142.304 295.324 142.472 294.538 142.808 293.854C143.156 293.158 143.636 292.624 144.248 292.252C144.872 291.868 145.58 291.676 146.372 291.676C147.044 291.676 147.638 291.82 148.154 292.108C148.682 292.384 149.084 292.774 149.36 293.278V291.91H151.592ZM146.966 298.984C147.71 298.984 148.292 298.738 148.712 298.246C149.144 297.754 149.36 297.076 149.36 296.212C149.36 295.348 149.15 294.67 148.73 294.178C148.31 293.686 147.722 293.44 146.966 293.44C146.222 293.44 145.634 293.686 145.202 294.178C144.782 294.67 144.572 295.348 144.572 296.212C144.572 297.076 144.782 297.754 145.202 298.246C145.634 298.738 146.222 298.984 146.966 298.984ZM157.653 301.144C156.009 301.144 154.701 300.76 153.729 299.992L154.359 298.408C155.331 299.128 156.441 299.488 157.689 299.488C158.229 299.488 158.643 299.398 158.931 299.218C159.231 299.038 159.381 298.786 159.381 298.462C159.381 298.186 159.279 297.97 159.075 297.814C158.871 297.646 158.523 297.502 158.031 297.382L156.519 297.04C154.863 296.68 154.035 295.834 154.035 294.502C154.035 293.95 154.191 293.464 154.503 293.044C154.815 292.612 155.253 292.276 155.817 292.036C156.381 291.796 157.035 291.676 157.779 291.676C158.427 291.676 159.051 291.778 159.651 291.982C160.251 292.174 160.779 292.456 161.235 292.828L160.569 294.358C159.657 293.686 158.721 293.35 157.761 293.35C157.245 293.35 156.843 293.446 156.555 293.638C156.267 293.83 156.123 294.094 156.123 294.43C156.123 294.694 156.207 294.904 156.375 295.06C156.555 295.216 156.855 295.348 157.275 295.456L158.823 295.798C159.723 296.002 160.377 296.32 160.785 296.752C161.205 297.172 161.415 297.724 161.415 298.408C161.415 299.248 161.079 299.914 160.407 300.406C159.735 300.898 158.817 301.144 157.653 301.144Z" fill="#1D1D47"/>
<line x1="0.5" y1="-0.5" x2="43.5" y2="-0.5" transform="matrix(0 1 1 0 461 430)" stroke="#1D1D47" stroke-linecap="round" stroke-dasharray="1 4"/>
<line x1="0.5" y1="-0.5" x2="168.5" y2="-0.5" transform="matrix(1 0 0 -1 461 474)" stroke="#1D1D47" stroke-linecap="round" stroke-dasharray="1 4"/>
<line x1="394.5" y1="87.5" x2="394.5" y2="135.5" stroke="#1D1D47" stroke-linecap="round" stroke-dasharray="1 4"/>
<line x1="332.5" y1="430.5" x2="332.5" y2="473.5" stroke="#1D1D47" stroke-linecap="round" stroke-dasharray="1 4"/>
<line x1="331.5" y1="474.5" x2="163.5" y2="474.5" stroke="#1D1D47" stroke-linecap="round" stroke-dasharray="1 4"/>
<line x1="533.5" y1="256.5" x2="629.5" y2="256.5" stroke="#1D1D47" stroke-linecap="round" stroke-dasharray="1 4"/>
<line x1="163.5" y1="256.5" x2="256.5" y2="256.5" stroke="#1D1D47" stroke-linecap="round" stroke-dasharray="1 4"/>
<path d="M368.828 318.516H365.58V317.032H373.91V318.516H370.648V327H368.828V318.516ZM379.378 319.748C381.068 319.748 381.912 320.719 381.912 322.66V327H380.162V322.744C380.162 322.184 380.055 321.778 379.84 321.526C379.626 321.265 379.294 321.134 378.846 321.134C378.314 321.134 377.885 321.307 377.558 321.652C377.232 321.988 377.068 322.436 377.068 322.996V327H375.332V316.696H377.068V320.952C377.311 320.569 377.633 320.275 378.034 320.07C378.436 319.855 378.884 319.748 379.378 319.748ZM390.256 323.556H385.384C385.421 324.312 385.608 324.872 385.944 325.236C386.289 325.591 386.798 325.768 387.47 325.768C388.244 325.768 388.963 325.516 389.626 325.012L390.13 326.216C389.794 326.487 389.378 326.706 388.884 326.874C388.398 327.033 387.904 327.112 387.4 327.112C386.242 327.112 385.332 326.785 384.67 326.132C384.007 325.479 383.676 324.583 383.676 323.444C383.676 322.725 383.82 322.086 384.11 321.526C384.399 320.966 384.805 320.532 385.328 320.224C385.85 319.907 386.443 319.748 387.106 319.748C388.076 319.748 388.842 320.065 389.402 320.7C389.971 321.325 390.256 322.189 390.256 323.29V323.556ZM387.148 321.008C386.681 321.008 386.298 321.148 386 321.428C385.71 321.699 385.524 322.095 385.44 322.618H388.73C388.674 322.086 388.51 321.685 388.24 321.414C387.978 321.143 387.614 321.008 387.148 321.008ZM398.8 319.93V327H397.078V325.866C396.863 326.258 396.555 326.566 396.154 326.79C395.752 327.005 395.295 327.112 394.782 327.112C394.166 327.112 393.62 326.963 393.144 326.664C392.668 326.365 392.299 325.941 392.038 325.39C391.776 324.839 391.646 324.2 391.646 323.472C391.646 322.744 391.776 322.1 392.038 321.54C392.308 320.971 392.682 320.532 393.158 320.224C393.634 319.907 394.175 319.748 394.782 319.748C395.295 319.748 395.752 319.86 396.154 320.084C396.555 320.299 396.863 320.602 397.078 320.994V319.93H398.8ZM395.258 325.74C395.836 325.74 396.284 325.539 396.602 325.138C396.919 324.737 397.078 324.172 397.078 323.444C397.078 322.697 396.919 322.123 396.602 321.722C396.284 321.321 395.832 321.12 395.244 321.12C394.665 321.12 394.212 321.33 393.886 321.75C393.568 322.161 393.41 322.735 393.41 323.472C393.41 324.2 393.568 324.76 393.886 325.152C394.212 325.544 394.67 325.74 395.258 325.74ZM403.232 321.246V324.41C403.232 325.241 403.619 325.656 404.394 325.656C404.608 325.656 404.842 325.619 405.094 325.544V326.93C404.786 327.042 404.412 327.098 403.974 327.098C403.171 327.098 402.555 326.874 402.126 326.426C401.696 325.978 401.482 325.334 401.482 324.494V321.246H400.124V319.93H401.482V318.208L403.232 317.62V319.93H405.108V321.246H403.232ZM410.418 319.762C410.689 319.762 410.922 319.799 411.118 319.874L411.104 321.47C410.806 321.349 410.498 321.288 410.18 321.288C409.583 321.288 409.126 321.461 408.808 321.806C408.5 322.151 408.346 322.609 408.346 323.178V327H406.61V321.932C406.61 321.185 406.573 320.518 406.498 319.93H408.136L408.276 321.176C408.454 320.719 408.734 320.369 409.116 320.126C409.499 319.883 409.933 319.762 410.418 319.762ZM418.444 323.556H413.572C413.609 324.312 413.796 324.872 414.132 325.236C414.477 325.591 414.986 325.768 415.658 325.768C416.433 325.768 417.151 325.516 417.814 325.012L418.318 326.216C417.982 326.487 417.567 326.706 417.072 326.874C416.587 327.033 416.092 327.112 415.588 327.112C414.431 327.112 413.521 326.785 412.858 326.132C412.195 325.479 411.864 324.583 411.864 323.444C411.864 322.725 412.009 322.086 412.298 321.526C412.587 320.966 412.993 320.532 413.516 320.224C414.039 319.907 414.631 319.748 415.294 319.748C416.265 319.748 417.03 320.065 417.59 320.7C418.159 321.325 418.444 322.189 418.444 323.29V323.556ZM415.336 321.008C414.869 321.008 414.487 321.148 414.188 321.428C413.899 321.699 413.712 322.095 413.628 322.618H416.918C416.862 322.086 416.699 321.685 416.428 321.414C416.167 321.143 415.803 321.008 415.336 321.008ZM422.816 327.112C421.537 327.112 420.52 326.813 419.764 326.216L420.254 324.984C421.01 325.544 421.873 325.824 422.844 325.824C423.264 325.824 423.586 325.754 423.81 325.614C424.043 325.474 424.16 325.278 424.16 325.026C424.16 324.811 424.081 324.643 423.922 324.522C423.763 324.391 423.493 324.279 423.11 324.186L421.934 323.92C420.646 323.64 420.002 322.982 420.002 321.946C420.002 321.517 420.123 321.139 420.366 320.812C420.609 320.476 420.949 320.215 421.388 320.028C421.827 319.841 422.335 319.748 422.914 319.748C423.418 319.748 423.903 319.827 424.37 319.986C424.837 320.135 425.247 320.355 425.602 320.644L425.084 321.834C424.375 321.311 423.647 321.05 422.9 321.05C422.499 321.05 422.186 321.125 421.962 321.274C421.738 321.423 421.626 321.629 421.626 321.89C421.626 322.095 421.691 322.259 421.822 322.38C421.962 322.501 422.195 322.604 422.522 322.688L423.726 322.954C424.426 323.113 424.935 323.36 425.252 323.696C425.579 324.023 425.742 324.452 425.742 324.984C425.742 325.637 425.481 326.155 424.958 326.538C424.435 326.921 423.721 327.112 422.816 327.112Z" fill="#333940"/>
<path d="M65.1195 520.162C64.1355 520.162 63.2115 520.03 62.3475 519.766C61.4955 519.502 60.7695 519.124 60.1695 518.632L60.9615 516.94C61.5855 517.408 62.2335 517.756 62.9055 517.984C63.5895 518.2 64.3335 518.308 65.1375 518.308C66.0255 518.308 66.7095 518.152 67.1895 517.84C67.6815 517.528 67.9275 517.09 67.9275 516.526C67.9275 516.046 67.6995 515.68 67.2435 515.428C66.7995 515.164 66.0615 514.918 65.0295 514.69C63.4215 514.342 62.2515 513.892 61.5195 513.34C60.7875 512.788 60.4215 511.984 60.4215 510.928C60.4215 510.172 60.6255 509.5 61.0335 508.912C61.4415 508.324 62.0175 507.862 62.7615 507.526C63.5175 507.19 64.3875 507.022 65.3715 507.022C66.2715 507.022 67.1235 507.16 67.9275 507.436C68.7435 507.7 69.4095 508.072 69.9255 508.552L69.1515 510.244C68.0115 509.332 66.7515 508.876 65.3715 508.876C64.5435 508.876 63.8895 509.05 63.4095 509.398C62.9295 509.734 62.6895 510.196 62.6895 510.784C62.6895 511.288 62.8995 511.672 63.3195 511.936C63.7515 512.2 64.4835 512.446 65.5155 512.674C66.5835 512.926 67.4535 513.202 68.1255 513.502C68.7975 513.79 69.3135 514.168 69.6735 514.636C70.0335 515.092 70.2135 515.668 70.2135 516.364C70.2135 517.132 70.0095 517.804 69.6015 518.38C69.1935 518.944 68.6055 519.382 67.8375 519.694C67.0695 520.006 66.1635 520.162 65.1195 520.162ZM77.7055 510.676C79.8775 510.676 80.9635 511.924 80.9635 514.42V520H78.7135V514.528C78.7135 513.808 78.5755 513.286 78.2995 512.962C78.0235 512.626 77.5975 512.458 77.0215 512.458C76.3375 512.458 75.7855 512.68 75.3655 513.124C74.9455 513.556 74.7355 514.132 74.7355 514.852V520H72.5035V506.752H74.7355V512.224C75.0475 511.732 75.4615 511.354 75.9775 511.09C76.4935 510.814 77.0695 510.676 77.7055 510.676ZM87.7712 520.144C86.8472 520.144 86.0312 519.952 85.3232 519.568C84.6272 519.184 84.0872 518.638 83.7032 517.93C83.3312 517.21 83.1452 516.37 83.1452 515.41C83.1452 514.45 83.3312 513.616 83.7032 512.908C84.0872 512.188 84.6272 511.636 85.3232 511.252C86.0312 510.868 86.8472 510.676 87.7712 510.676C88.6832 510.676 89.4872 510.868 90.1832 511.252C90.8792 511.636 91.4132 512.188 91.7852 512.908C92.1692 513.616 92.3612 514.45 92.3612 515.41C92.3612 516.37 92.1692 517.21 91.7852 517.93C91.4132 518.638 90.8792 519.184 90.1832 519.568C89.4872 519.952 88.6832 520.144 87.7712 520.144ZM87.7532 518.38C88.5212 518.38 89.1032 518.134 89.4992 517.642C89.9072 517.138 90.1112 516.394 90.1112 515.41C90.1112 514.438 89.9072 513.7 89.4992 513.196C89.0912 512.68 88.5152 512.422 87.7712 512.422C87.0152 512.422 86.4332 512.68 86.0252 513.196C85.6172 513.7 85.4132 514.438 85.4132 515.41C85.4132 516.394 85.6112 517.138 86.0072 517.642C86.4152 518.134 86.9972 518.38 87.7532 518.38ZM108.915 510.91L105.351 520H103.389L101.139 514.042L98.9433 520H96.9633L93.3993 510.91H95.7033L98.0433 517.318L100.401 510.91H102.021L104.379 517.372L106.719 510.91H108.915ZM113.841 520.144C112.197 520.144 110.889 519.76 109.917 518.992L110.547 517.408C111.519 518.128 112.629 518.488 113.877 518.488C114.417 518.488 114.831 518.398 115.119 518.218C115.419 518.038 115.569 517.786 115.569 517.462C115.569 517.186 115.467 516.97 115.263 516.814C115.059 516.646 114.711 516.502 114.219 516.382L112.707 516.04C111.051 515.68 110.223 514.834 110.223 513.502C110.223 512.95 110.379 512.464 110.691 512.044C111.003 511.612 111.441 511.276 112.005 511.036C112.569 510.796 113.223 510.676 113.967 510.676C114.615 510.676 115.239 510.778 115.839 510.982C116.439 511.174 116.967 511.456 117.423 511.828L116.757 513.358C115.845 512.686 114.909 512.35 113.949 512.35C113.433 512.35 113.031 512.446 112.743 512.638C112.455 512.83 112.311 513.094 112.311 513.43C112.311 513.694 112.395 513.904 112.563 514.06C112.743 514.216 113.043 514.348 113.463 514.456L115.011 514.798C115.911 515.002 116.565 515.32 116.973 515.752C117.393 516.172 117.603 516.724 117.603 517.408C117.603 518.248 117.267 518.914 116.595 519.406C115.923 519.898 115.005 520.144 113.841 520.144Z" fill="#1D1D47"/>
<path d="M346.485 35V40H327.925V35H334.085V18.48L328.325 21.88V16.4L336.685 11.52H340.325V35H346.485ZM372.469 35V40H353.909V35H360.069V18.48L354.309 21.88V16.4L362.669 11.52H366.309V35H372.469ZM384.253 33.56V40H377.733V33.56H384.253ZM399.282 11.16C402.989 11.16 405.842 12.3867 407.842 14.84C409.842 17.2933 410.842 20.7867 410.842 25.32C410.842 28.44 410.362 31.1333 409.402 33.4C408.442 35.64 407.069 37.36 405.282 38.56C403.496 39.76 401.362 40.36 398.882 40.36C397.122 40.36 395.416 40.08 393.762 39.52C392.109 38.96 390.696 38.1733 389.522 37.16L391.562 32.68C393.989 34.52 396.336 35.44 398.602 35.44C400.469 35.44 401.909 34.6933 402.922 33.2C403.962 31.68 404.536 29.4667 404.642 26.56C404.029 27.6267 403.149 28.48 402.002 29.12C400.856 29.7333 399.576 30.04 398.162 30.04C396.509 30.04 395.016 29.6533 393.682 28.88C392.376 28.08 391.349 26.9867 390.602 25.6C389.882 24.1867 389.522 22.5867 389.522 20.8C389.522 18.96 389.936 17.3067 390.762 15.84C391.616 14.3733 392.776 13.2267 394.242 12.4C395.736 11.5733 397.416 11.16 399.282 11.16ZM399.642 25.12C400.922 25.12 401.949 24.7067 402.722 23.88C403.522 23.0267 403.922 21.92 403.922 20.56C403.922 19.2267 403.522 18.1467 402.722 17.32C401.922 16.4667 400.896 16.04 399.642 16.04C398.362 16.04 397.336 16.4533 396.562 17.28C395.816 18.1067 395.442 19.2 395.442 20.56C395.442 21.9733 395.816 23.0933 396.562 23.92C397.309 24.72 398.336 25.12 399.642 25.12ZM436.907 35V40H418.347V35H424.507V18.48L418.747 21.88V16.4L427.107 11.52H430.747V35H436.907ZM462.891 35V40H444.331V35H450.491V18.48L444.731 21.88V16.4L453.091 11.52H456.731V35H462.891Z" fill="#1D1D47"/>
<path d="M334.224 58.184H339.786C341.166 58.184 342.24 58.52 343.008 59.192C343.776 59.852 344.16 60.758 344.16 61.91C344.16 63.062 343.77 63.974 342.99 64.646C342.222 65.318 341.154 65.654 339.786 65.654H336.546V71H334.224V58.184ZM339.516 63.854C340.32 63.854 340.926 63.692 341.334 63.368C341.754 63.032 341.964 62.552 341.964 61.928C341.964 61.292 341.76 60.812 341.352 60.488C340.944 60.152 340.332 59.984 339.516 59.984H336.546V63.854H339.516ZM353.972 66.572H347.708C347.756 67.544 347.996 68.264 348.428 68.732C348.872 69.188 349.526 69.416 350.39 69.416C351.386 69.416 352.31 69.092 353.162 68.444L353.81 69.992C353.378 70.34 352.844 70.622 352.208 70.838C351.584 71.042 350.948 71.144 350.3 71.144C348.812 71.144 347.642 70.724 346.79 69.884C345.938 69.044 345.512 67.892 345.512 66.428C345.512 65.504 345.698 64.682 346.07 63.962C346.442 63.242 346.964 62.684 347.636 62.288C348.308 61.88 349.07 61.676 349.922 61.676C351.17 61.676 352.154 62.084 352.874 62.9C353.606 63.704 353.972 64.814 353.972 66.23V66.572ZM349.976 63.296C349.376 63.296 348.884 63.476 348.5 63.836C348.128 64.184 347.888 64.694 347.78 65.366H352.01C351.938 64.682 351.728 64.166 351.38 63.818C351.044 63.47 350.576 63.296 349.976 63.296ZM361.073 61.694C361.421 61.694 361.721 61.742 361.973 61.838L361.955 63.89C361.571 63.734 361.175 63.656 360.767 63.656C359.999 63.656 359.411 63.878 359.003 64.322C358.607 64.766 358.409 65.354 358.409 66.086V71H356.177V64.484C356.177 63.524 356.129 62.666 356.033 61.91H358.139L358.319 63.512C358.547 62.924 358.907 62.474 359.399 62.162C359.891 61.85 360.449 61.694 361.073 61.694ZM368.654 59.534C367.682 59.534 367.196 60.068 367.196 61.136V61.91H369.23V63.602H367.196V71H364.946V63.602H363.218V61.91H364.946V61.028C364.946 59.948 365.216 59.12 365.756 58.544C366.308 57.956 367.094 57.662 368.114 57.662C368.678 57.662 369.152 57.734 369.536 57.878V59.66C369.2 59.576 368.906 59.534 368.654 59.534ZM375.296 71.144C374.372 71.144 373.556 70.952 372.848 70.568C372.152 70.184 371.612 69.638 371.228 68.93C370.856 68.21 370.67 67.37 370.67 66.41C370.67 65.45 370.856 64.616 371.228 63.908C371.612 63.188 372.152 62.636 372.848 62.252C373.556 61.868 374.372 61.676 375.296 61.676C376.208 61.676 377.012 61.868 377.708 62.252C378.404 62.636 378.938 63.188 379.31 63.908C379.694 64.616 379.886 65.45 379.886 66.41C379.886 67.37 379.694 68.21 379.31 68.93C378.938 69.638 378.404 70.184 377.708 70.568C377.012 70.952 376.208 71.144 375.296 71.144ZM375.278 69.38C376.046 69.38 376.628 69.134 377.024 68.642C377.432 68.138 377.636 67.394 377.636 66.41C377.636 65.438 377.432 64.7 377.024 64.196C376.616 63.68 376.04 63.422 375.296 63.422C374.54 63.422 373.958 63.68 373.55 64.196C373.142 64.7 372.938 65.438 372.938 66.41C372.938 67.394 373.136 68.138 373.532 68.642C373.94 69.134 374.522 69.38 375.278 69.38ZM387.022 61.694C387.37 61.694 387.67 61.742 387.922 61.838L387.904 63.89C387.52 63.734 387.124 63.656 386.716 63.656C385.948 63.656 385.36 63.878 384.952 64.322C384.556 64.766 384.358 65.354 384.358 66.086V71H382.126V64.484C382.126 63.524 382.078 62.666 381.982 61.91H384.088L384.268 63.512C384.496 62.924 384.856 62.474 385.348 62.162C385.84 61.85 386.398 61.694 387.022 61.694ZM400.203 61.676C401.235 61.676 402.003 61.988 402.507 62.612C403.011 63.224 403.263 64.16 403.263 65.42V71H401.013V65.492C401.013 64.772 400.893 64.256 400.653 63.944C400.425 63.62 400.041 63.458 399.501 63.458C398.877 63.458 398.385 63.68 398.025 64.124C397.677 64.556 397.503 65.156 397.503 65.924V71H395.253V65.492C395.253 64.784 395.127 64.268 394.875 63.944C394.635 63.62 394.251 63.458 393.723 63.458C393.099 63.458 392.607 63.68 392.247 64.124C391.887 64.556 391.707 65.156 391.707 65.924V71H389.475V64.484C389.475 63.524 389.427 62.666 389.331 61.91H391.437L391.599 63.35C391.863 62.81 392.241 62.396 392.733 62.108C393.237 61.82 393.813 61.676 394.461 61.676C395.853 61.676 396.759 62.252 397.179 63.404C397.467 62.864 397.875 62.444 398.403 62.144C398.943 61.832 399.543 61.676 400.203 61.676ZM414.658 61.91V71H412.444V69.542C412.168 70.046 411.772 70.442 411.256 70.73C410.74 71.006 410.152 71.144 409.492 71.144C408.7 71.144 407.998 70.952 407.386 70.568C406.774 70.184 406.3 69.638 405.964 68.93C405.628 68.222 405.46 67.4 405.46 66.464C405.46 65.528 405.628 64.7 405.964 63.98C406.312 63.248 406.792 62.684 407.404 62.288C408.016 61.88 408.712 61.676 409.492 61.676C410.152 61.676 410.74 61.82 411.256 62.108C411.772 62.384 412.168 62.774 412.444 63.278V61.91H414.658ZM410.104 69.38C410.848 69.38 411.424 69.122 411.832 68.606C412.24 68.09 412.444 67.364 412.444 66.428C412.444 65.468 412.24 64.73 411.832 64.214C411.424 63.698 410.842 63.44 410.086 63.44C409.342 63.44 408.76 63.71 408.34 64.25C407.932 64.778 407.728 65.516 407.728 66.464C407.728 67.4 407.932 68.12 408.34 68.624C408.76 69.128 409.348 69.38 410.104 69.38ZM422.611 61.676C424.783 61.676 425.869 62.924 425.869 65.42V71H423.619V65.528C423.619 64.808 423.481 64.286 423.205 63.962C422.929 63.626 422.503 63.458 421.927 63.458C421.243 63.458 420.691 63.68 420.271 64.124C419.851 64.556 419.641 65.132 419.641 65.852V71H417.409V64.484C417.409 63.524 417.361 62.666 417.265 61.91H419.371L419.533 63.404C419.845 62.852 420.265 62.426 420.793 62.126C421.333 61.826 421.939 61.676 422.611 61.676ZM432.677 71.144C431.729 71.144 430.907 70.952 430.211 70.568C429.515 70.184 428.981 69.644 428.609 68.948C428.237 68.24 428.051 67.412 428.051 66.464C428.051 65.516 428.243 64.682 428.627 63.962C429.023 63.242 429.575 62.684 430.283 62.288C431.003 61.88 431.831 61.676 432.767 61.676C433.415 61.676 434.039 61.778 434.639 61.982C435.251 62.186 435.737 62.468 436.097 62.828L435.467 64.412C435.083 64.1 434.675 63.866 434.243 63.71C433.811 63.542 433.385 63.458 432.965 63.458C432.149 63.458 431.513 63.716 431.057 64.232C430.601 64.736 430.373 65.468 430.373 66.428C430.373 67.388 430.595 68.12 431.039 68.624C431.495 69.128 432.137 69.38 432.965 69.38C433.385 69.38 433.811 69.296 434.243 69.128C434.675 68.96 435.083 68.72 435.467 68.408L436.097 69.992C435.713 70.352 435.215 70.634 434.603 70.838C433.991 71.042 433.349 71.144 432.677 71.144ZM445.863 66.572H439.599C439.647 67.544 439.887 68.264 440.319 68.732C440.763 69.188 441.417 69.416 442.281 69.416C443.277 69.416 444.201 69.092 445.053 68.444L445.701 69.992C445.269 70.34 444.735 70.622 444.099 70.838C443.475 71.042 442.839 71.144 442.191 71.144C440.703 71.144 439.533 70.724 438.681 69.884C437.829 69.044 437.403 67.892 437.403 66.428C437.403 65.504 437.589 64.682 437.961 63.962C438.333 63.242 438.855 62.684 439.527 62.288C440.199 61.88 440.961 61.676 441.813 61.676C443.061 61.676 444.045 62.084 444.765 62.9C445.497 63.704 445.863 64.814 445.863 66.23V66.572ZM441.867 63.296C441.267 63.296 440.775 63.476 440.391 63.836C440.019 64.184 439.779 64.694 439.671 65.366H443.901C443.829 64.682 443.619 64.166 443.271 63.818C442.935 63.47 442.467 63.296 441.867 63.296ZM451.399 71.144C449.755 71.144 448.447 70.76 447.475 69.992L448.105 68.408C449.077 69.128 450.187 69.488 451.435 69.488C451.975 69.488 452.389 69.398 452.677 69.218C452.977 69.038 453.127 68.786 453.127 68.462C453.127 68.186 453.025 67.97 452.821 67.814C452.617 67.646 452.269 67.502 451.777 67.382L450.265 67.04C448.609 66.68 447.781 65.834 447.781 64.502C447.781 63.95 447.937 63.464 448.249 63.044C448.561 62.612 448.999 62.276 449.563 62.036C450.127 61.796 450.781 61.676 451.525 61.676C452.173 61.676 452.797 61.778 453.397 61.982C453.997 62.174 454.525 62.456 454.981 62.828L454.315 64.358C453.403 63.686 452.467 63.35 451.507 63.35C450.991 63.35 450.589 63.446 450.301 63.638C450.013 63.83 449.869 64.094 449.869 64.43C449.869 64.694 449.953 64.904 450.121 65.06C450.301 65.216 450.601 65.348 451.021 65.456L452.569 65.798C453.469 66.002 454.123 66.32 454.531 66.752C454.951 67.172 455.161 67.724 455.161 68.408C455.161 69.248 454.825 69.914 454.153 70.406C453.481 70.898 452.563 71.144 451.399 71.144Z" fill="#1D1D47"/>
<path d="M664.958 470.56C666.718 470.56 668.278 470.947 669.638 471.72C671.025 472.467 672.092 473.533 672.838 474.92C673.612 476.307 673.998 477.907 673.998 479.72C673.998 481.64 673.545 483.333 672.638 484.8C671.758 486.24 670.478 487.36 668.798 488.16C667.145 488.933 665.212 489.32 662.998 489.32C661.185 489.32 659.385 489.027 657.598 488.44C655.838 487.853 654.412 487.08 653.318 486.12L655.318 481.64C657.852 483.48 660.438 484.4 663.078 484.4C666.412 484.4 668.078 482.92 668.078 479.96C668.078 478.547 667.638 477.44 666.758 476.64C665.905 475.813 664.732 475.4 663.238 475.4C662.305 475.4 661.358 475.573 660.398 475.92C659.465 476.267 658.625 476.747 657.878 477.36H654.318V460.52H672.598V465.32H660.398V471.68C661.652 470.933 663.172 470.56 664.958 470.56ZM691.303 470.48C692.956 470.48 694.436 470.88 695.743 471.68C697.076 472.453 698.103 473.547 698.823 474.96C699.569 476.347 699.943 477.933 699.943 479.72C699.943 481.56 699.516 483.213 698.663 484.68C697.836 486.147 696.676 487.293 695.183 488.12C693.716 488.947 692.049 489.36 690.183 489.36C686.476 489.36 683.623 488.133 681.623 485.68C679.623 483.227 678.623 479.733 678.623 475.2C678.623 472.08 679.103 469.4 680.063 467.16C681.023 464.893 682.396 463.16 684.183 461.96C685.969 460.76 688.103 460.16 690.583 460.16C692.343 460.16 694.049 460.44 695.703 461C697.356 461.56 698.769 462.347 699.943 463.36L697.903 467.84C695.503 466 693.156 465.08 690.863 465.08C688.996 465.08 687.543 465.84 686.503 467.36C685.463 468.853 684.889 471.053 684.783 473.96C685.396 472.893 686.276 472.053 687.423 471.44C688.596 470.8 689.889 470.48 691.303 470.48ZM689.823 484.48C691.103 484.48 692.116 484.067 692.863 483.24C693.636 482.413 694.023 481.32 694.023 479.96C694.023 478.547 693.649 477.44 692.903 476.64C692.156 475.813 691.129 475.4 689.823 475.4C688.543 475.4 687.503 475.827 686.703 476.68C685.929 477.507 685.543 478.6 685.543 479.96C685.543 481.293 685.943 482.387 686.743 483.24C687.543 484.067 688.569 484.48 689.823 484.48ZM712.047 477.48C709.754 477.48 707.954 476.733 706.647 475.24C705.34 473.747 704.687 471.573 704.687 468.72C704.687 465.947 705.34 463.813 706.647 462.32C707.954 460.827 709.754 460.08 712.047 460.08C714.367 460.08 716.18 460.827 717.487 462.32C718.794 463.813 719.447 465.96 719.447 468.76C719.447 471.587 718.794 473.747 717.487 475.24C716.18 476.733 714.367 477.48 712.047 477.48ZM711.607 489L728.127 460.52H733.327L716.807 489H711.607ZM712.047 473.68C712.9 473.68 713.514 473.307 713.887 472.56C714.287 471.787 714.487 470.52 714.487 468.76C714.487 467.027 714.287 465.787 713.887 465.04C713.487 464.267 712.874 463.88 712.047 463.88C711.247 463.88 710.647 464.267 710.247 465.04C709.874 465.787 709.687 467.027 709.687 468.76C709.687 470.52 709.874 471.787 710.247 472.56C710.62 473.307 711.22 473.68 712.047 473.68ZM732.847 489.28C730.554 489.28 728.754 488.533 727.447 487.04C726.167 485.547 725.527 483.373 725.527 480.52C725.527 477.72 726.167 475.587 727.447 474.12C728.754 472.627 730.554 471.88 732.847 471.88C735.194 471.88 737.007 472.627 738.287 474.12C739.594 475.587 740.247 477.733 740.247 480.56C740.247 483.387 739.594 485.547 738.287 487.04C737.007 488.533 735.194 489.28 732.847 489.28ZM732.847 485.48C733.7 485.48 734.314 485.107 734.687 484.36C735.087 483.587 735.287 482.32 735.287 480.56C735.287 478.827 735.087 477.587 734.687 476.84C734.287 476.067 733.674 475.68 732.847 475.68C732.047 475.68 731.447 476.067 731.047 476.84C730.674 477.587 730.487 478.827 730.487 480.56C730.487 482.32 730.674 483.587 731.047 484.36C731.42 485.107 732.02 485.48 732.847 485.48Z" fill="#1D1D47"/>
<path d="M619.113 516.994H612.849L611.553 520H609.213L615.009 507.184H616.899L622.713 520H620.391L619.113 516.994ZM618.339 515.194L615.981 509.704L613.623 515.194H618.339ZM632.349 510.928L628.371 520H626.409L622.485 510.928H624.843L627.453 517.444L630.117 510.928H632.349ZM641.616 515.572H635.352C635.4 516.544 635.64 517.264 636.072 517.732C636.516 518.188 637.17 518.416 638.034 518.416C639.03 518.416 639.954 518.092 640.806 517.444L641.454 518.992C641.022 519.34 640.488 519.622 639.852 519.838C639.228 520.042 638.592 520.144 637.944 520.144C636.456 520.144 635.286 519.724 634.434 518.884C633.582 518.044 633.156 516.892 633.156 515.428C633.156 514.504 633.342 513.682 633.714 512.962C634.086 512.242 634.608 511.684 635.28 511.288C635.952 510.88 636.714 510.676 637.566 510.676C638.814 510.676 639.798 511.084 640.518 511.9C641.25 512.704 641.616 513.814 641.616 515.23V515.572ZM637.62 512.296C637.02 512.296 636.528 512.476 636.144 512.836C635.772 513.184 635.532 513.694 635.424 514.366H639.654C639.582 513.682 639.372 513.166 639.024 512.818C638.688 512.47 638.22 512.296 637.62 512.296ZM648.717 510.694C649.065 510.694 649.365 510.742 649.617 510.838L649.599 512.89C649.215 512.734 648.819 512.656 648.411 512.656C647.643 512.656 647.055 512.878 646.647 513.322C646.251 513.766 646.053 514.354 646.053 515.086V520H643.821V513.484C643.821 512.524 643.773 511.666 643.677 510.91H645.783L645.963 512.512C646.191 511.924 646.551 511.474 647.043 511.162C647.535 510.85 648.093 510.694 648.717 510.694ZM659.688 510.91V520H657.474V518.542C657.198 519.046 656.802 519.442 656.286 519.73C655.77 520.006 655.182 520.144 654.522 520.144C653.73 520.144 653.028 519.952 652.416 519.568C651.804 519.184 651.33 518.638 650.994 517.93C650.658 517.222 650.49 516.4 650.49 515.464C650.49 514.528 650.658 513.7 650.994 512.98C651.342 512.248 651.822 511.684 652.434 511.288C653.046 510.88 653.742 510.676 654.522 510.676C655.182 510.676 655.77 510.82 656.286 511.108C656.802 511.384 657.198 511.774 657.474 512.278V510.91H659.688ZM655.134 518.38C655.878 518.38 656.454 518.122 656.862 517.606C657.27 517.09 657.474 516.364 657.474 515.428C657.474 514.468 657.27 513.73 656.862 513.214C656.454 512.698 655.872 512.44 655.116 512.44C654.372 512.44 653.79 512.71 653.37 513.25C652.962 513.778 652.758 514.516 652.758 515.464C652.758 516.4 652.962 517.12 653.37 517.624C653.79 518.128 654.378 518.38 655.134 518.38ZM671.223 510.91V519.712C671.223 521.128 670.833 522.202 670.053 522.934C669.273 523.666 668.127 524.032 666.615 524.032C665.211 524.032 663.975 523.738 662.907 523.15L663.267 521.44C664.371 522.016 665.469 522.304 666.561 522.304C668.181 522.304 668.991 521.5 668.991 519.892V518.092C668.715 518.584 668.313 518.986 667.785 519.298C667.257 519.598 666.663 519.748 666.003 519.748C665.211 519.748 664.503 519.562 663.879 519.19C663.267 518.806 662.787 518.272 662.439 517.588C662.103 516.892 661.935 516.1 661.935 515.212C661.935 514.324 662.103 513.538 662.439 512.854C662.787 512.158 663.267 511.624 663.879 511.252C664.503 510.868 665.211 510.676 666.003 510.676C666.675 510.676 667.269 510.82 667.785 511.108C668.313 511.384 668.715 511.774 668.991 512.278V510.91H671.223ZM666.597 517.984C667.341 517.984 667.923 517.738 668.343 517.246C668.775 516.754 668.991 516.076 668.991 515.212C668.991 514.348 668.781 513.67 668.361 513.178C667.941 512.686 667.353 512.44 666.597 512.44C665.853 512.44 665.265 512.686 664.833 513.178C664.413 513.67 664.203 514.348 664.203 515.212C664.203 516.076 664.413 516.754 664.833 517.246C665.265 517.738 665.853 517.984 666.597 517.984ZM681.909 515.572H675.645C675.693 516.544 675.933 517.264 676.365 517.732C676.809 518.188 677.463 518.416 678.327 518.416C679.323 518.416 680.247 518.092 681.099 517.444L681.747 518.992C681.315 519.34 680.781 519.622 680.145 519.838C679.521 520.042 678.885 520.144 678.237 520.144C676.749 520.144 675.579 519.724 674.727 518.884C673.875 518.044 673.449 516.892 673.449 515.428C673.449 514.504 673.635 513.682 674.007 512.962C674.379 512.242 674.901 511.684 675.573 511.288C676.245 510.88 677.007 510.676 677.859 510.676C679.107 510.676 680.091 511.084 680.811 511.9C681.543 512.704 681.909 513.814 681.909 515.23V515.572ZM677.913 512.296C677.313 512.296 676.821 512.476 676.437 512.836C676.065 513.184 675.825 513.694 675.717 514.366H679.947C679.875 513.682 679.665 513.166 679.317 512.818C678.981 512.47 678.513 512.296 677.913 512.296ZM695.204 520.162C693.968 520.162 692.888 519.898 691.964 519.37C691.052 518.83 690.344 518.068 689.84 517.084C689.348 516.088 689.102 514.918 689.102 513.574C689.102 512.242 689.348 511.084 689.84 510.1C690.332 509.104 691.034 508.342 691.946 507.814C692.87 507.286 693.956 507.022 695.204 507.022C696.452 507.022 697.532 507.286 698.444 507.814C699.368 508.342 700.07 509.104 700.55 510.1C701.042 511.084 701.288 512.242 701.288 513.574C701.288 514.918 701.042 516.088 700.55 517.084C700.058 518.068 699.356 518.83 698.444 519.37C697.532 519.898 696.452 520.162 695.204 520.162ZM695.204 518.308C696.392 518.308 697.316 517.9 697.976 517.084C698.636 516.268 698.966 515.098 698.966 513.574C698.966 512.062 698.636 510.904 697.976 510.1C697.316 509.284 696.392 508.876 695.204 508.876C694.016 508.876 693.092 509.278 692.432 510.082C691.772 510.886 691.442 512.05 691.442 513.574C691.442 515.098 691.772 516.268 692.432 517.084C693.092 517.9 694.016 518.308 695.204 518.308ZM707.927 520.144C706.979 520.144 706.157 519.952 705.461 519.568C704.765 519.184 704.231 518.644 703.859 517.948C703.487 517.24 703.301 516.412 703.301 515.464C703.301 514.516 703.493 513.682 703.877 512.962C704.273 512.242 704.825 511.684 705.533 511.288C706.253 510.88 707.081 510.676 708.017 510.676C708.665 510.676 709.289 510.778 709.889 510.982C710.501 511.186 710.987 511.468 711.347 511.828L710.717 513.412C710.333 513.1 709.925 512.866 709.493 512.71C709.061 512.542 708.635 512.458 708.215 512.458C707.399 512.458 706.763 512.716 706.307 513.232C705.851 513.736 705.623 514.468 705.623 515.428C705.623 516.388 705.845 517.12 706.289 517.624C706.745 518.128 707.387 518.38 708.215 518.38C708.635 518.38 709.061 518.296 709.493 518.128C709.925 517.96 710.333 517.72 710.717 517.408L711.347 518.992C710.963 519.352 710.465 519.634 709.853 519.838C709.241 520.042 708.599 520.144 707.927 520.144ZM717.279 520.144C716.331 520.144 715.509 519.952 714.813 519.568C714.117 519.184 713.583 518.644 713.211 517.948C712.839 517.24 712.653 516.412 712.653 515.464C712.653 514.516 712.845 513.682 713.229 512.962C713.625 512.242 714.177 511.684 714.885 511.288C715.605 510.88 716.433 510.676 717.369 510.676C718.017 510.676 718.641 510.778 719.241 510.982C719.853 511.186 720.339 511.468 720.699 511.828L720.069 513.412C719.685 513.1 719.277 512.866 718.845 512.71C718.413 512.542 717.987 512.458 717.567 512.458C716.751 512.458 716.115 512.716 715.659 513.232C715.203 513.736 714.975 514.468 714.975 515.428C714.975 516.388 715.197 517.12 715.641 517.624C716.097 518.128 716.739 518.38 717.567 518.38C717.987 518.38 718.413 518.296 718.845 518.128C719.277 517.96 719.685 517.72 720.069 517.408L720.699 518.992C720.315 519.352 719.817 519.634 719.205 519.838C718.593 520.042 717.951 520.144 717.279 520.144ZM730.79 510.91V520H728.594V518.596C728.306 519.1 727.922 519.484 727.442 519.748C726.962 520.012 726.41 520.144 725.786 520.144C723.566 520.144 722.456 518.896 722.456 516.4V510.91H724.688V516.418C724.688 517.078 724.82 517.564 725.084 517.876C725.36 518.188 725.78 518.344 726.344 518.344C727.004 518.344 727.532 518.128 727.928 517.696C728.324 517.264 728.522 516.688 728.522 515.968V510.91H730.79ZM738.717 510.676C739.497 510.676 740.187 510.88 740.787 511.288C741.399 511.684 741.873 512.248 742.209 512.98C742.557 513.7 742.731 514.528 742.731 515.464C742.731 516.4 742.563 517.222 742.227 517.93C741.891 518.638 741.417 519.184 740.805 519.568C740.205 519.952 739.509 520.144 738.717 520.144C738.057 520.144 737.469 520.006 736.953 519.73C736.437 519.442 736.041 519.046 735.765 518.542V523.888H733.533V513.484C733.533 512.524 733.485 511.666 733.389 510.91H735.495L735.675 512.476C735.915 511.912 736.305 511.474 736.845 511.162C737.385 510.838 738.009 510.676 738.717 510.676ZM738.105 518.38C738.861 518.38 739.443 518.128 739.851 517.624C740.259 517.12 740.463 516.4 740.463 515.464C740.463 514.516 740.259 513.778 739.851 513.25C739.443 512.71 738.867 512.44 738.123 512.44C737.355 512.44 736.767 512.698 736.359 513.214C735.951 513.73 735.747 514.468 735.747 515.428C735.747 516.376 735.951 517.108 736.359 517.624C736.767 518.128 737.349 518.38 738.105 518.38ZM753.689 510.91V520H751.475V518.542C751.199 519.046 750.803 519.442 750.287 519.73C749.771 520.006 749.183 520.144 748.523 520.144C747.731 520.144 747.029 519.952 746.417 519.568C745.805 519.184 745.331 518.638 744.995 517.93C744.659 517.222 744.491 516.4 744.491 515.464C744.491 514.528 744.659 513.7 744.995 512.98C745.343 512.248 745.823 511.684 746.435 511.288C747.047 510.88 747.743 510.676 748.523 510.676C749.183 510.676 749.771 510.82 750.287 511.108C750.803 511.384 751.199 511.774 751.475 512.278V510.91H753.689ZM749.135 518.38C749.879 518.38 750.455 518.122 750.863 517.606C751.271 517.09 751.475 516.364 751.475 515.428C751.475 514.468 751.271 513.73 750.863 513.214C750.455 512.698 749.873 512.44 749.117 512.44C748.373 512.44 747.791 512.71 747.371 513.25C746.963 513.778 746.759 514.516 746.759 515.464C746.759 516.4 746.963 517.12 747.371 517.624C747.791 518.128 748.379 518.38 749.135 518.38ZM761.641 510.676C763.813 510.676 764.899 511.924 764.899 514.42V520H762.649V514.528C762.649 513.808 762.511 513.286 762.235 512.962C761.959 512.626 761.533 512.458 760.957 512.458C760.273 512.458 759.721 512.68 759.301 513.124C758.881 513.556 758.671 514.132 758.671 514.852V520H756.439V513.484C756.439 512.524 756.391 511.666 756.295 510.91H758.401L758.563 512.404C758.875 511.852 759.295 511.426 759.823 511.126C760.363 510.826 760.969 510.676 761.641 510.676ZM771.707 520.144C770.759 520.144 769.937 519.952 769.241 519.568C768.545 519.184 768.011 518.644 767.639 517.948C767.267 517.24 767.081 516.412 767.081 515.464C767.081 514.516 767.273 513.682 767.657 512.962C768.053 512.242 768.605 511.684 769.313 511.288C770.033 510.88 770.861 510.676 771.797 510.676C772.445 510.676 773.069 510.778 773.669 510.982C774.281 511.186 774.767 511.468 775.127 511.828L774.497 513.412C774.113 513.1 773.705 512.866 773.273 512.71C772.841 512.542 772.415 512.458 771.995 512.458C771.179 512.458 770.543 512.716 770.087 513.232C769.631 513.736 769.403 514.468 769.403 515.428C769.403 516.388 769.625 517.12 770.069 517.624C770.525 518.128 771.167 518.38 771.995 518.38C772.415 518.38 772.841 518.296 773.273 518.128C773.705 517.96 774.113 517.72 774.497 517.408L775.127 518.992C774.743 519.352 774.245 519.634 773.633 519.838C773.021 520.042 772.379 520.144 771.707 520.144ZM785.542 510.91L781.312 520.612C780.832 521.74 780.22 522.562 779.476 523.078C778.732 523.594 777.814 523.936 776.722 524.104L776.218 522.376C777.07 522.184 777.706 521.938 778.126 521.638C778.558 521.35 778.906 520.918 779.17 520.342L779.458 519.676L775.678 510.91H778.036L780.646 517.444L783.31 510.91H785.542Z" fill="#1D1D47"/>
<path d="M671.703 265V270H653.143V265H659.303V248.48L653.543 251.88V246.4L661.903 241.52H665.543V265H671.703ZM698.288 264.8H694.408V270H688.288V264.8H676.328V260.16L689.408 241.52H694.408V259.96H698.288V264.8ZM688.288 259.96V251L682.048 259.96H688.288ZM716.072 265.4C717.059 265.4 718.046 265.187 719.032 264.76C720.019 264.333 721.152 263.613 722.432 262.6L724.432 267.08C723.392 268.093 722.086 268.893 720.512 269.48C718.939 270.067 717.366 270.36 715.792 270.36C713.046 270.36 710.752 269.52 708.912 267.84C707.099 266.16 705.886 263.773 705.272 260.68H701.712V257H704.832C704.806 256.733 704.792 256.307 704.792 255.72C704.792 255.16 704.806 254.747 704.832 254.48H701.712V250.8H705.272C705.886 247.733 707.099 245.36 708.912 243.68C710.752 242 713.046 241.16 715.792 241.16C717.366 241.16 718.939 241.453 720.512 242.04C722.086 242.627 723.392 243.427 724.432 244.44L722.432 248.92C721.152 247.907 720.019 247.187 719.032 246.76C718.046 246.333 717.059 246.12 716.072 246.12C714.819 246.12 713.806 246.507 713.032 247.28C712.286 248.027 711.739 249.2 711.392 250.8H717.352V254.48H710.992V255.72V257H717.352V260.68H711.392C711.739 262.307 712.286 263.507 713.032 264.28C713.806 265.027 714.819 265.4 716.072 265.4Z" fill="#1D1D47"/>
<path d="M34.6067 251.56C36.3667 251.56 37.9267 251.947 39.2867 252.72C40.6734 253.467 41.7401 254.533 42.4867 255.92C43.2601 257.307 43.6467 258.907 43.6467 260.72C43.6467 262.64 43.1934 264.333 42.2867 265.8C41.4067 267.24 40.1267 268.36 38.4467 269.16C36.7934 269.933 34.8601 270.32 32.6467 270.32C30.8334 270.32 29.0334 270.027 27.2467 269.44C25.4867 268.853 24.0601 268.08 22.9667 267.12L24.9667 262.64C27.5001 264.48 30.0867 265.4 32.7267 265.4C36.0601 265.4 37.7267 263.92 37.7267 260.96C37.7267 259.547 37.2867 258.44 36.4067 257.64C35.5534 256.813 34.3801 256.4 32.8867 256.4C31.9534 256.4 31.0067 256.573 30.0467 256.92C29.1134 257.267 28.2734 257.747 27.5267 258.36H23.9667V241.52H42.2467V246.32H30.0467V252.68C31.3001 251.933 32.8201 251.56 34.6067 251.56ZM69.1111 241.52V246.16L56.4311 270H49.7511L62.3911 246.52H48.6711V241.52H69.1111ZM103.975 241.52V270H98.4555V254.44L91.8955 270H87.8555L81.2555 254.64V270H75.7755V241.52H80.7355L89.9355 262.52L99.0555 241.52H103.975ZM137.209 265.4C138.196 265.4 139.182 265.187 140.169 264.76C141.156 264.333 142.289 263.613 143.569 262.6L145.569 267.08C144.529 268.093 143.222 268.893 141.649 269.48C140.076 270.067 138.502 270.36 136.929 270.36C134.182 270.36 131.889 269.52 130.049 267.84C128.236 266.16 127.022 263.773 126.409 260.68H122.849V257H125.969C125.942 256.733 125.929 256.307 125.929 255.72C125.929 255.16 125.942 254.747 125.969 254.48H122.849V250.8H126.409C127.022 247.733 128.236 245.36 130.049 243.68C131.889 242 134.182 241.16 136.929 241.16C138.502 241.16 140.076 241.453 141.649 242.04C143.222 242.627 144.529 243.427 145.569 244.44L143.569 248.92C142.289 247.907 141.156 247.187 140.169 246.76C139.182 246.333 138.196 246.12 137.209 246.12C135.956 246.12 134.942 246.507 134.169 247.28C133.422 248.027 132.876 249.2 132.529 250.8H138.489V254.48H132.129V255.72V257H138.489V260.68H132.529C132.876 262.307 133.422 263.507 134.169 264.28C134.942 265.027 135.956 265.4 137.209 265.4Z" fill="#1D1D47"/>
<g opacity="0.6">
<mask id="path-21-inside-1" fill="white">
<path fill-rule="evenodd" clip-rule="evenodd" d="M382.034 158H498.833C500.582 158 502 159.417 502 161.167V367.578H495.666V356.989H292.335V367.578H286V353.82C286 353.815 286 353.81 286.001 353.806C286.001 353.801 286.002 353.797 286.002 353.792V178.173C286.002 178.168 286.001 178.163 286.001 178.159C286 178.154 286 178.15 286 178.145V161.167C286 159.417 287.419 158 289.167 158H362.889C364.637 158 366.056 159.419 366.056 161.167C366.056 162.916 364.639 164.335 362.889 164.335H292.335V174.977H495.666V164.335H382.034C380.286 164.335 378.867 162.916 378.867 161.167C378.867 159.419 380.286 158 382.034 158ZM479.583 292.877C470.381 279.799 463.857 257.757 460.164 227.171C457.717 206.9 457.275 188.499 457.199 181.312H448.447C447.544 196.562 440.347 210.145 429.423 219.495C431.353 228.934 434.128 239.071 438.127 248.853C438.788 250.473 438.012 252.322 436.394 252.985C434.774 253.647 432.925 252.869 432.262 251.251C428.493 242.029 425.774 232.603 423.807 223.712C415.234 229.328 404.992 232.6 394 232.6C383 232.6 372.753 229.323 364.176 223.701C363.897 224.969 363.607 226.245 363.296 227.535C359.57 242.963 354.296 256.462 347.624 267.653C339.563 281.173 329.424 291.346 317.474 297.933V312.936C325.637 321.546 325.941 342.216 325.699 350.652H462.303C462.059 342.216 462.364 321.546 470.528 312.936V297.934C459.068 291.616 449.264 281.994 441.376 269.291C440.451 267.806 440.909 265.854 442.394 264.929C443.88 264.006 445.833 264.464 446.756 265.949C454.271 278.047 463.593 287.104 474.473 292.877H479.583ZM394 204.037C407.256 204.037 418.225 194.059 419.794 181.22H368.206C369.775 194.059 380.744 204.037 394 204.037ZM394 210.372C377.247 210.372 363.434 197.559 361.837 181.22H345.892C347.528 206.333 368.48 226.263 394 226.263C419.52 226.263 440.472 206.333 442.109 181.22H426.163C424.566 197.559 410.753 210.372 394 210.372ZM339.554 181.312H330.803C330.727 188.499 330.285 206.9 327.838 227.171C324.144 257.757 317.621 279.799 308.417 292.877H313.527C324.849 286.87 334.473 277.318 342.144 264.471C348.489 253.848 353.523 240.965 357.104 226.182C357.651 223.928 358.141 221.702 358.591 219.508C347.658 210.156 340.457 196.569 339.554 181.312ZM324.468 181.312H292.336V292.875H300.36C310.32 281.75 317.634 258.825 321.548 226.411C323.957 206.456 324.394 188.375 324.468 181.312ZM311.14 299.211H292.336V311.118H311.14V299.211ZM313.033 317.454H292.336V350.652H319.343C319.419 347.656 319.429 342.726 318.972 337.454C318.133 327.775 316.039 320.753 313.033 317.454ZM468.657 350.652H495.666V317.454H474.967C471.955 320.762 469.859 327.81 469.023 337.53C468.572 342.785 468.583 347.674 468.657 350.652ZM476.863 311.12H495.666V299.211H476.863V311.12ZM487.642 292.877H495.666V181.312H463.534C463.61 188.387 464.046 206.512 466.462 226.479C470.378 258.856 477.69 281.758 487.642 292.877Z"/>
</mask>
<path fill-rule="evenodd" clip-rule="evenodd" d="M382.034 158H498.833C500.582 158 502 159.417 502 161.167V367.578H495.666V356.989H292.335V367.578H286V353.82C286 353.815 286 353.81 286.001 353.806C286.001 353.801 286.002 353.797 286.002 353.792V178.173C286.002 178.168 286.001 178.163 286.001 178.159C286 178.154 286 178.15 286 178.145V161.167C286 159.417 287.419 158 289.167 158H362.889C364.637 158 366.056 159.419 366.056 161.167C366.056 162.916 364.639 164.335 362.889 164.335H292.335V174.977H495.666V164.335H382.034C380.286 164.335 378.867 162.916 378.867 161.167C378.867 159.419 380.286 158 382.034 158ZM479.583 292.877C470.381 279.799 463.857 257.757 460.164 227.171C457.717 206.9 457.275 188.499 457.199 181.312H448.447C447.544 196.562 440.347 210.145 429.423 219.495C431.353 228.934 434.128 239.071 438.127 248.853C438.788 250.473 438.012 252.322 436.394 252.985C434.774 253.647 432.925 252.869 432.262 251.251C428.493 242.029 425.774 232.603 423.807 223.712C415.234 229.328 404.992 232.6 394 232.6C383 232.6 372.753 229.323 364.176 223.701C363.897 224.969 363.607 226.245 363.296 227.535C359.57 242.963 354.296 256.462 347.624 267.653C339.563 281.173 329.424 291.346 317.474 297.933V312.936C325.637 321.546 325.941 342.216 325.699 350.652H462.303C462.059 342.216 462.364 321.546 470.528 312.936V297.934C459.068 291.616 449.264 281.994 441.376 269.291C440.451 267.806 440.909 265.854 442.394 264.929C443.88 264.006 445.833 264.464 446.756 265.949C454.271 278.047 463.593 287.104 474.473 292.877H479.583ZM394 204.037C407.256 204.037 418.225 194.059 419.794 181.22H368.206C369.775 194.059 380.744 204.037 394 204.037ZM394 210.372C377.247 210.372 363.434 197.559 361.837 181.22H345.892C347.528 206.333 368.48 226.263 394 226.263C419.52 226.263 440.472 206.333 442.109 181.22H426.163C424.566 197.559 410.753 210.372 394 210.372ZM339.554 181.312H330.803C330.727 188.499 330.285 206.9 327.838 227.171C324.144 257.757 317.621 279.799 308.417 292.877H313.527C324.849 286.87 334.473 277.318 342.144 264.471C348.489 253.848 353.523 240.965 357.104 226.182C357.651 223.928 358.141 221.702 358.591 219.508C347.658 210.156 340.457 196.569 339.554 181.312ZM324.468 181.312H292.336V292.875H300.36C310.32 281.75 317.634 258.825 321.548 226.411C323.957 206.456 324.394 188.375 324.468 181.312ZM311.14 299.211H292.336V311.118H311.14V299.211ZM313.033 317.454H292.336V350.652H319.343C319.419 347.656 319.429 342.726 318.972 337.454C318.133 327.775 316.039 320.753 313.033 317.454ZM468.657 350.652H495.666V317.454H474.967C471.955 320.762 469.859 327.81 469.023 337.53C468.572 342.785 468.583 347.674 468.657 350.652ZM476.863 311.12H495.666V299.211H476.863V311.12ZM487.642 292.877H495.666V181.312H463.534C463.61 188.387 464.046 206.512 466.462 226.479C470.378 258.856 477.69 281.758 487.642 292.877Z" fill="url(#paint0_linear)"/>
<path d="M502 367.578V368.576H502.998V367.578H502ZM495.666 367.578H494.668V368.576H495.666V367.578ZM495.666 356.989H496.664V355.991H495.666V356.989ZM292.335 356.989V355.991H291.337V356.989H292.335ZM292.335 367.578V368.576H293.333V367.578H292.335ZM286 367.578H285.002V368.576H286V367.578ZM286.001 178.159L286.995 178.068L286.995 178.068L286.001 178.159ZM292.335 164.335V163.337H291.337V164.335H292.335ZM292.335 174.977H291.337V175.975H292.335V174.977ZM495.666 174.977V175.975H496.664V174.977H495.666ZM495.666 164.335H496.664V163.337H495.666V164.335ZM460.164 227.171L459.173 227.291V227.291L460.164 227.171ZM479.583 292.877V293.875H481.506L480.4 292.302L479.583 292.877ZM457.199 181.312L458.197 181.301L458.187 180.314H457.199V181.312ZM448.447 181.312V180.314H447.506L447.451 181.253L448.447 181.312ZM429.423 219.495L428.774 218.737L428.327 219.119L428.445 219.695L429.423 219.495ZM438.127 248.853L439.052 248.476L439.051 248.476L438.127 248.853ZM436.394 252.985L436.772 253.908L436.772 253.908L436.394 252.985ZM432.262 251.251L431.339 251.629L431.339 251.629L432.262 251.251ZM423.807 223.712L424.781 223.496L424.469 222.085L423.26 222.877L423.807 223.712ZM364.176 223.701L364.723 222.866L363.511 222.072L363.201 223.487L364.176 223.701ZM363.296 227.535L364.266 227.77L364.266 227.77L363.296 227.535ZM347.624 267.653L346.766 267.142L346.766 267.142L347.624 267.653ZM317.474 297.933L316.992 297.059L316.476 297.343V297.933H317.474ZM317.474 312.936H316.476V313.333L316.75 313.622L317.474 312.936ZM325.699 350.652L324.702 350.624L324.672 351.65H325.699V350.652ZM462.303 350.652V351.65H463.33L463.301 350.623L462.303 350.652ZM470.528 312.936L471.252 313.622L471.526 313.333V312.936H470.528ZM470.528 297.934H471.526V297.345L471.01 297.06L470.528 297.934ZM441.376 269.291L442.223 268.765L442.223 268.764L441.376 269.291ZM442.394 264.929L441.868 264.081L441.866 264.082L442.394 264.929ZM446.756 265.949L447.604 265.423L447.604 265.422L446.756 265.949ZM474.473 292.877L474.005 293.758L474.225 293.875H474.473V292.877ZM419.794 181.22L420.785 181.341L420.921 180.222H419.794V181.22ZM368.206 181.22V180.222H367.079L367.216 181.341L368.206 181.22ZM361.837 181.22L362.83 181.123L362.742 180.222H361.837V181.22ZM345.892 181.22V180.222H344.826L344.896 181.285L345.892 181.22ZM442.109 181.22L443.105 181.285L443.174 180.222H442.109V181.22ZM426.163 181.22V180.222H425.258L425.17 181.123L426.163 181.22ZM330.803 181.312V180.314H329.815L329.805 181.301L330.803 181.312ZM339.554 181.312L340.55 181.253L340.494 180.314H339.554V181.312ZM327.838 227.171L328.829 227.291L328.829 227.291L327.838 227.171ZM308.417 292.877L307.601 292.302L306.494 293.875H308.417V292.877ZM313.527 292.877V293.875H313.776L313.995 293.758L313.527 292.877ZM342.144 264.471L341.287 263.959L341.287 263.959L342.144 264.471ZM357.104 226.182L356.134 225.947L356.134 225.947L357.104 226.182ZM358.591 219.508L359.568 219.709L359.687 219.132L359.239 218.75L358.591 219.508ZM292.336 181.312V180.314H291.338V181.312H292.336ZM324.468 181.312L325.466 181.322L325.477 180.314H324.468V181.312ZM292.336 292.875H291.338V293.873H292.336V292.875ZM300.36 292.875V293.873H300.806L301.104 293.541L300.36 292.875ZM321.548 226.411L322.539 226.531V226.531L321.548 226.411ZM292.336 299.211V298.213H291.338V299.211H292.336ZM311.14 299.211H312.138V298.213H311.14V299.211ZM292.336 311.118H291.338V312.116H292.336V311.118ZM311.14 311.118V312.116H312.138V311.118H311.14ZM292.336 317.454V316.456H291.338V317.454H292.336ZM313.033 317.454L313.771 316.782L313.474 316.456H313.033V317.454ZM292.336 350.652H291.338V351.65H292.336V350.652ZM319.343 350.652V351.65H320.316L320.341 350.678L319.343 350.652ZM318.972 337.454L319.967 337.368L319.967 337.368L318.972 337.454ZM495.666 350.652V351.65H496.664V350.652H495.666ZM468.657 350.652L467.66 350.677L467.684 351.65H468.657V350.652ZM495.666 317.454H496.664V316.456H495.666V317.454ZM474.967 317.454V316.456H474.526L474.23 316.782L474.967 317.454ZM469.023 337.53L468.029 337.444L468.029 337.444L469.023 337.53ZM495.666 311.12V312.118H496.664V311.12H495.666ZM476.863 311.12H475.865V312.118H476.863V311.12ZM495.666 299.211H496.664V298.213H495.666V299.211ZM476.863 299.211V298.213H475.865V299.211H476.863ZM495.666 292.877V293.875H496.664V292.877H495.666ZM487.642 292.877L486.898 293.542L487.196 293.875H487.642V292.877ZM495.666 181.312H496.664V180.314H495.666V181.312ZM463.534 181.312V180.314H462.525L462.536 181.323L463.534 181.312ZM466.462 226.479L467.453 226.359V226.359L466.462 226.479ZM498.833 157.002H382.034V158.998H498.833V157.002ZM502.998 161.167C502.998 158.866 501.132 157.002 498.833 157.002V158.998C500.031 158.998 501.002 159.969 501.002 161.167H502.998ZM502.998 367.578V161.167H501.002V367.578H502.998ZM495.666 368.576H502V366.58H495.666V368.576ZM494.668 356.989V367.578H496.664V356.989H494.668ZM292.335 357.987H495.666V355.991H292.335V357.987ZM293.333 367.578V356.989H291.337V367.578H293.333ZM286 368.576H292.335V366.58H286V368.576ZM285.002 353.82V367.578H286.998V353.82H285.002ZM285.007 353.715C285.007 353.716 285.006 353.73 285.004 353.746C285.003 353.764 285.002 353.789 285.002 353.82H286.998C286.998 353.845 286.997 353.866 286.996 353.879C286.995 353.89 286.994 353.9 286.995 353.896L285.007 353.715ZM285.004 353.792C285.004 353.766 285.005 353.746 285.006 353.732C285.006 353.721 285.007 353.711 285.007 353.715L286.995 353.896C286.995 353.896 286.996 353.881 286.997 353.865C286.998 353.847 287 353.822 287 353.792H285.004ZM285.004 178.173V353.792H287V178.173H285.004ZM285.007 178.249C285.007 178.253 285.006 178.243 285.006 178.232C285.005 178.218 285.004 178.198 285.004 178.173H287C287 178.142 286.998 178.117 286.997 178.099C286.996 178.083 286.995 178.069 286.995 178.068L285.007 178.249ZM285.002 178.145C285.002 178.175 285.003 178.2 285.004 178.218C285.006 178.234 285.007 178.248 285.007 178.249L286.995 178.068C286.994 178.064 286.995 178.074 286.996 178.085C286.997 178.099 286.998 178.119 286.998 178.145H285.002ZM285.002 161.167V178.145H286.998V161.167H285.002ZM289.167 157.002C286.868 157.002 285.002 158.866 285.002 161.167H286.998C286.998 159.969 287.97 158.998 289.167 158.998V157.002ZM362.889 157.002H289.167V158.998H362.889V157.002ZM367.054 161.167C367.054 158.868 365.188 157.002 362.889 157.002V158.998C364.086 158.998 365.058 159.97 365.058 161.167H367.054ZM362.889 165.333C365.19 165.333 367.054 163.467 367.054 161.167H365.058C365.058 162.365 364.087 163.337 362.889 163.337V165.333ZM292.335 165.333H362.889V163.337H292.335V165.333ZM293.333 174.977V164.335H291.337V174.977H293.333ZM495.666 173.979H292.335V175.975H495.666V173.979ZM494.668 164.335V174.977H496.664V164.335H494.668ZM382.034 165.333H495.666V163.337H382.034V165.333ZM377.869 161.167C377.869 163.467 379.735 165.333 382.034 165.333V163.337C380.837 163.337 379.865 162.365 379.865 161.167H377.869ZM382.034 157.002C379.735 157.002 377.869 158.868 377.869 161.167H379.865C379.865 159.97 380.837 158.998 382.034 158.998V157.002ZM459.173 227.291C462.871 257.916 469.417 280.163 478.767 293.451L480.4 292.302C471.345 279.434 464.843 257.599 461.155 227.052L459.173 227.291ZM456.201 181.322C456.277 188.527 456.72 206.969 459.173 227.291L461.155 227.052C458.714 206.831 458.273 188.47 458.197 181.301L456.201 181.322ZM448.447 182.31H457.199V180.314H448.447V182.31ZM430.072 220.253C441.193 210.734 448.523 196.903 449.443 181.371L447.451 181.253C446.564 196.221 439.501 209.555 428.774 218.737L430.072 220.253ZM439.051 248.476C435.081 238.765 432.322 228.691 430.401 219.295L428.445 219.695C430.384 229.178 433.175 239.377 437.204 249.231L439.051 248.476ZM436.772 253.908C438.9 253.037 439.92 250.606 439.052 248.476L437.203 249.23C437.656 250.34 437.124 251.607 436.016 252.061L436.772 253.908ZM431.339 251.629C432.21 253.756 434.641 254.78 436.772 253.908L436.016 252.061C434.907 252.514 433.64 251.982 433.186 250.873L431.339 251.629ZM422.832 223.928C424.809 232.861 427.544 242.343 431.339 251.629L433.186 250.873C429.443 241.715 426.739 232.345 424.781 223.496L422.832 223.928ZM394 233.598C405.193 233.598 415.624 230.266 424.354 224.547L423.26 222.877C414.844 228.391 404.791 231.601 394 231.601V233.598ZM363.628 224.535C372.363 230.261 382.799 233.598 394 233.598V231.601C383.201 231.601 373.143 228.386 364.723 222.866L363.628 224.535ZM364.266 227.77C364.579 226.471 364.871 225.188 365.15 223.915L363.201 223.487C362.923 224.751 362.635 226.019 362.325 227.301L364.266 227.77ZM348.481 268.164C355.214 256.871 360.521 243.275 364.266 227.77L362.325 227.301C358.618 242.652 353.378 256.053 346.766 267.142L348.481 268.164ZM317.956 298.807C330.083 292.122 340.344 281.813 348.481 268.164L346.766 267.142C338.783 280.533 328.765 290.569 316.992 297.059L317.956 298.807ZM318.472 312.936V297.933H316.476V312.936H318.472ZM326.697 350.681C326.819 346.436 326.804 339.095 325.726 331.715C324.656 324.389 322.507 316.795 318.199 312.249L316.75 313.622C320.603 317.687 322.689 324.734 323.751 332.004C324.805 339.221 324.822 346.433 324.702 350.624L326.697 350.681ZM462.303 349.654H325.699V351.65H462.303V349.654ZM469.804 312.249C465.494 316.794 463.345 324.388 462.275 331.715C461.197 339.095 461.183 346.436 461.305 350.681L463.301 350.623C463.179 346.432 463.196 339.221 464.25 332.004C465.312 324.734 467.398 317.687 471.252 313.622L469.804 312.249ZM469.53 297.934V312.936H471.526V297.934H469.53ZM440.528 269.818C448.494 282.645 458.417 292.397 470.046 298.808L471.01 297.06C459.719 290.835 450.035 281.342 442.223 268.765L440.528 269.818ZM441.866 264.082C439.916 265.296 439.311 267.864 440.528 269.819L442.223 268.764C441.591 267.749 441.903 266.411 442.922 265.776L441.866 264.082ZM447.604 265.422C446.39 263.47 443.823 262.867 441.868 264.081L442.92 265.777C443.938 265.145 445.276 265.459 445.908 266.476L447.604 265.422ZM474.941 291.995C464.24 286.317 455.04 277.394 447.604 265.423L445.908 266.476C453.501 278.699 462.947 287.891 474.005 293.758L474.941 291.995ZM479.583 291.879H474.473V293.875H479.583V291.879ZM418.803 181.099C417.295 193.444 406.745 203.039 394 203.039V205.035C407.768 205.035 419.155 194.674 420.785 181.341L418.803 181.099ZM368.206 182.218H419.794V180.222H368.206V182.218ZM394 203.039C381.255 203.039 370.706 193.444 369.197 181.099L367.216 181.341C368.845 194.674 380.233 205.035 394 205.035V203.039ZM360.844 181.317C362.49 198.162 376.728 211.37 394 211.37V209.374C377.766 209.374 364.378 196.956 362.83 181.123L360.844 181.317ZM345.892 182.218H361.837V180.222H345.892V182.218ZM394 225.265C369.01 225.265 348.49 205.747 346.887 181.155L344.896 181.285C346.566 206.919 367.95 227.261 394 227.261V225.265ZM441.113 181.155C439.51 205.747 418.991 225.265 394 225.265V227.261C420.05 227.261 441.434 206.919 443.105 181.285L441.113 181.155ZM426.163 182.218H442.109V180.222H426.163V182.218ZM394 211.37C411.273 211.37 425.51 198.162 427.157 181.317L425.17 181.123C423.623 196.956 410.234 209.374 394 209.374V211.37ZM330.803 182.31H339.554V180.314H330.803V182.31ZM328.829 227.291C331.282 206.969 331.725 188.527 331.801 181.322L329.805 181.301C329.729 188.47 329.288 206.831 326.847 227.052L328.829 227.291ZM309.233 293.451C318.585 280.163 325.13 257.916 328.829 227.291L326.847 227.051C323.157 257.599 316.657 279.434 307.601 292.302L309.233 293.451ZM313.527 291.879H308.417V293.875H313.527V291.879ZM341.287 263.959C333.694 276.677 324.195 286.087 313.06 291.995L313.995 293.758C325.503 287.653 335.252 277.96 343.001 264.983L341.287 263.959ZM356.134 225.947C352.572 240.654 347.57 253.44 341.287 263.959L343.001 264.983C349.407 254.257 354.475 241.276 358.074 226.417L356.134 225.947ZM357.613 219.308C357.165 221.492 356.678 223.706 356.134 225.947L358.074 226.418C358.625 224.15 359.117 221.911 359.568 219.709L357.613 219.308ZM338.557 181.371C339.477 196.91 346.812 210.746 357.942 220.267L359.239 218.75C348.504 209.566 341.436 196.228 340.55 181.253L338.557 181.371ZM292.336 182.31H324.468V180.314H292.336V182.31ZM293.334 292.875V181.312H291.338V292.875H293.334ZM300.36 291.877H292.336V293.873H300.36V291.877ZM320.557 226.292C318.605 242.458 315.809 256.227 312.271 267.323C308.728 278.433 304.464 286.795 299.617 292.209L301.104 293.541C306.217 287.829 310.589 279.167 314.172 267.93C317.76 256.679 320.577 242.779 322.539 226.531L320.557 226.292ZM323.47 181.301C323.396 188.346 322.96 206.387 320.557 226.292L322.539 226.531C324.954 206.525 325.392 188.404 325.466 181.322L323.47 181.301ZM292.336 300.209H311.14V298.213H292.336V300.209ZM293.334 311.118V299.211H291.338V311.118H293.334ZM311.14 310.12H292.336V312.116H311.14V310.12ZM310.141 299.211V311.118H312.138V299.211H310.141ZM292.336 318.452H313.033V316.456H292.336V318.452ZM293.334 350.652V317.454H291.338V350.652H293.334ZM319.343 349.654H292.336V351.65H319.343V349.654ZM317.978 337.54C318.43 342.762 318.421 347.653 318.345 350.627L320.341 350.678C320.417 347.66 320.427 342.689 319.967 337.368L317.978 337.54ZM312.295 318.126C313.654 319.618 314.874 322.035 315.859 325.346C316.838 328.641 317.562 332.746 317.978 337.54L319.967 337.368C319.543 332.483 318.801 328.238 317.772 324.777C316.748 321.333 315.418 318.59 313.771 316.782L312.295 318.126ZM495.666 349.654H468.657V351.65H495.666V349.654ZM494.668 317.454V350.652H496.664V317.454H494.668ZM474.967 318.452H495.666V316.456H474.967V318.452ZM470.018 337.615C470.431 332.801 471.155 328.679 472.136 325.371C473.121 322.047 474.344 319.621 475.705 318.126L474.23 316.782C472.579 318.595 471.247 321.347 470.222 324.804C469.193 328.277 468.451 332.539 468.029 337.444L470.018 337.615ZM469.655 350.627C469.582 347.671 469.57 342.821 470.018 337.615L468.029 337.444C467.573 342.749 467.585 347.678 467.66 350.677L469.655 350.627ZM495.666 310.121H476.863V312.118H495.666V310.121ZM494.668 299.211V311.12H496.664V299.211H494.668ZM476.863 300.209H495.666V298.213H476.863V300.209ZM477.861 311.12V299.211H475.865V311.12H477.861ZM495.666 291.879H487.642V293.875H495.666V291.879ZM494.668 181.312V292.877H496.664V181.312H494.668ZM463.534 182.31H495.666V180.314H463.534V182.31ZM467.453 226.359C465.043 206.443 464.608 188.358 464.532 181.301L462.536 181.323C462.612 188.415 463.049 206.581 465.472 226.599L467.453 226.359ZM488.385 292.211C483.542 286.8 479.28 278.445 475.739 267.346C472.202 256.261 469.406 242.507 467.453 226.359L465.471 226.599C467.434 242.829 470.252 256.714 473.838 267.953C477.419 279.179 481.789 287.834 486.898 293.542L488.385 292.211Z" fill="url(#paint1_linear)" mask="url(#path-21-inside-1)"/>
<path fill-rule="evenodd" clip-rule="evenodd" d="M336 407.782V402.078C336 392.965 328.613 385.578 319.5 385.578C310.387 385.578 303 392.965 303 402.078V407.782H298V402.078C298 390.204 307.626 380.578 319.5 380.578C331.374 380.578 341 390.204 341 402.078V407.782H336Z" fill="#12108B"/>
<path fill-rule="evenodd" clip-rule="evenodd" d="M286 407.782V402.078C286 392.965 278.613 385.578 269.5 385.578C260.387 385.578 253 392.965 253 402.078V407.782H248V402.078C248 390.204 257.626 380.578 269.5 380.578C281.374 380.578 291 390.204 291 402.078V407.782H286Z" fill="#12108B"/>
<path fill-rule="evenodd" clip-rule="evenodd" d="M386 407.782V402.078C386 392.965 378.613 385.578 369.5 385.578C360.387 385.578 353 392.965 353 402.078V407.782H348V402.078C348 390.204 357.626 380.578 369.5 380.578C381.374 380.578 391 390.204 391 402.078V407.782H386Z" fill="#12108B"/>
<path fill-rule="evenodd" clip-rule="evenodd" d="M536 407.782V402.078C536 392.965 528.613 385.578 519.5 385.578C510.387 385.578 503 392.965 503 402.078V407.782H498V402.078C498 390.204 507.626 380.578 519.5 380.578C531.374 380.578 541 390.204 541 402.078V407.782H536Z" fill="#12108B"/>
<path fill-rule="evenodd" clip-rule="evenodd" d="M486 407.782V402.078C486 392.965 478.613 385.578 469.5 385.578C460.387 385.578 453 392.965 453 402.078V407.782H448V402.078C448 390.204 457.626 380.578 469.5 380.578C481.374 380.578 491 390.204 491 402.078V407.782H486Z" fill="#12108B"/>
<path fill-rule="evenodd" clip-rule="evenodd" d="M436 407.782V402.078C436 392.965 428.613 385.578 419.5 385.578C410.387 385.578 403 392.965 403 402.078V407.782H398V402.078C398 390.204 407.626 380.578 419.5 380.578C431.374 380.578 441 390.204 441 402.078V407.782H436Z" fill="#12108B"/>
<path fill-rule="evenodd" clip-rule="evenodd" d="M312 387.214V386.078C312 376.965 304.613 369.578 295.5 369.578C286.387 369.578 279 376.965 279 386.078V388.221C277.499 387.291 275.813 386.575 274 386.124V386.078C274 374.204 283.626 364.578 295.5 364.578C307.264 364.578 316.822 374.027 316.998 385.75C315.223 385.995 313.541 386.497 312 387.214Z" fill="#12108B"/>
<path fill-rule="evenodd" clip-rule="evenodd" d="M512 387.214V386.078C512 376.965 504.613 369.578 495.5 369.578C486.387 369.578 479 376.965 479 386.078V388.312C477.499 387.35 475.813 386.609 474 386.143V386.078C474 374.204 483.626 364.578 495.5 364.578C507.264 364.578 516.822 374.027 516.998 385.75C515.223 385.995 513.541 386.497 512 387.214Z" fill="#12108B"/>
<path fill-rule="evenodd" clip-rule="evenodd" d="M462 387.214V386.078C462 376.965 454.612 369.578 445.5 369.578C436.387 369.578 429 376.965 429 386.078V387.312C427.504 386.353 425.825 385.614 424.02 385.148C424.507 373.705 433.937 364.578 445.5 364.578C457.264 364.578 466.822 374.027 466.997 385.75C465.223 385.995 463.541 386.497 462 387.214Z" fill="#12108B"/>
<path fill-rule="evenodd" clip-rule="evenodd" d="M412 387.214V386.078C412 376.965 404.612 369.578 395.5 369.578C386.387 369.578 379 376.965 379 386.078V387.312C377.504 386.353 375.825 385.614 374.02 385.148C374.507 373.705 383.937 364.578 395.5 364.578C407.264 364.578 416.822 374.027 416.997 385.75C415.223 385.995 413.541 386.497 412 387.214Z" fill="#12108B"/>
<path fill-rule="evenodd" clip-rule="evenodd" d="M362 386.214V386.078C362 376.965 354.613 369.578 345.5 369.578C336.387 369.578 329 376.965 329 386.078V388.312C327.499 387.35 325.813 386.609 324 386.143V386.078C324 374.204 333.626 364.578 345.5 364.578C356.93 364.578 366.276 373.497 366.96 384.755C365.199 385.002 363.53 385.502 362 386.214Z" fill="#12108B"/>
</g>
<defs>
<linearGradient id="paint0_linear" x1="394" y1="158" x2="394" y2="367.578" gradientUnits="userSpaceOnUse">
<stop stop-color="#5F5CFF"/>
<stop offset="1" stop-color="#12108B"/>
</linearGradient>
<linearGradient id="paint1_linear" x1="394" y1="158" x2="394" y2="367.578" gradientUnits="userSpaceOnUse">
<stop stop-color="#5F5CFF"/>
<stop offset="1" stop-color="#12108B"/>
</linearGradient>
</defs>
</svg>
